<svg width="29" height="33" viewBox="0 0 29 33" fill="none" xmlns="http://www.w3.org/2000/svg">
<path d="M27.8028 22.665C27.6829 22.5204 27.5651 22.3759 27.4494 22.2364C25.8596 20.3135 24.8977 19.1529 24.8977 13.7091C24.8977 10.8907 24.2235 8.57824 22.8945 6.84387C21.9146 5.5626 20.59 4.59063 18.844 3.8723C18.8216 3.85981 18.8015 3.84341 18.7848 3.82389C18.1568 1.72096 16.4383 0.3125 14.5002 0.3125C12.562 0.3125 10.8442 1.72096 10.2163 3.82172C10.1995 3.84053 10.1797 3.8564 10.1577 3.86869C6.08339 5.54598 4.10331 8.76397 4.10331 13.7069C4.10331 19.1529 3.1429 20.3135 1.55161 22.2343C1.43598 22.3738 1.31819 22.5154 1.19823 22.6628C0.888356 23.0365 0.692025 23.4912 0.632473 23.973C0.572921 24.4548 0.652639 24.9435 0.862195 25.3814C1.30807 26.3209 2.25837 26.9041 3.34307 26.9041H25.6652C26.7449 26.9041 27.6886 26.3216 28.136 25.3865C28.3464 24.9485 28.4269 24.4593 28.3679 23.977C28.3088 23.4946 28.1127 23.0393 27.8028 22.665ZM14.5002 32.6875C15.5444 32.6867 16.569 32.4032 17.4652 31.8672C18.3614 31.3312 19.0958 30.5626 19.5906 29.6429C19.6139 29.5989 19.6254 29.5495 19.624 29.4997C19.6226 29.4499 19.6083 29.4012 19.5826 29.3585C19.5568 29.3158 19.5205 29.2805 19.477 29.256C19.4336 29.2315 19.3846 29.2187 19.3347 29.2188H9.66704C9.61712 29.2186 9.56801 29.2313 9.52449 29.2558C9.48096 29.2802 9.44451 29.3155 9.41868 29.3582C9.39285 29.4009 9.37852 29.4496 9.37708 29.4995C9.37565 29.5494 9.38716 29.5988 9.4105 29.6429C9.90518 30.5625 10.6395 31.331 11.5355 31.867C12.4316 32.403 13.456 32.6865 14.5002 32.6875Z" fill="#17476D"/>
</svg>
