<svg width="75" height="74" viewBox="0 0 75 74" fill="none" xmlns="http://www.w3.org/2000/svg">
<g filter="url(#filter0_d_57_45170)">
<path opacity="0.21" fill-rule="evenodd" clip-rule="evenodd" d="M4.54688 33.1733V42.9733C4.54688 55.6758 14.8443 65.9733 27.5469 65.9733H37.3469H47.1469C59.8494 65.9733 70.1469 55.6758 70.1469 42.9733V33.1733V23.3733C70.1469 10.6707 59.8494 0.373291 47.1469 0.373291H37.3469H27.5469C14.8443 0.373291 4.54688 10.6708 4.54688 23.3733V33.1733Z" fill="#C8EDFD" fill-opacity="0.3"/>
<path opacity="0.587821" fill-rule="evenodd" clip-rule="evenodd" d="M27.2891 25.8311C27.2891 29.0515 29.8997 31.6622 33.1202 31.6622C36.3406 31.6622 38.9513 29.0515 38.9513 25.8311C38.9513 22.6107 36.3406 20 33.1202 20C29.8997 20 27.2891 22.6107 27.2891 25.8311ZM41.8667 31.6622C41.8667 34.0775 43.8247 36.0355 46.24 36.0355C48.6554 36.0355 50.6134 34.0775 50.6134 31.6622C50.6134 29.2468 48.6554 27.2888 46.24 27.2888C43.8247 27.2888 41.8667 29.2468 41.8667 31.6622Z" fill="#60B8D6"/>
<path fill-rule="evenodd" clip-rule="evenodd" d="M33.0957 34.5779C26.2129 34.5779 20.566 38.1152 20.001 45.0727C19.9702 45.4517 20.6949 46.2401 21.0605 46.2401H45.1419C46.237 46.2401 46.254 45.3588 46.237 45.0739C45.8098 37.9208 40.0754 34.5779 33.0957 34.5779ZM54.1936 46.2402H48.5725C48.5725 42.9588 47.4884 39.9306 45.6587 37.4944C50.6246 37.5487 54.6794 40.0594 54.9846 45.3655C54.9968 45.5792 54.9846 46.2402 54.1936 46.2402Z" fill="#60B8D6"/>
</g>
<defs>
<filter id="filter0_d_57_45170" x="0.546875" y="0.373291" width="73.6001" height="73.6001" filterUnits="userSpaceOnUse" color-interpolation-filters="sRGB">
<feFlood flood-opacity="0" result="BackgroundImageFix"/>
<feColorMatrix in="SourceAlpha" type="matrix" values="0 0 0 0 0 0 0 0 0 0 0 0 0 0 0 0 0 0 127 0" result="hardAlpha"/>
<feOffset dy="4"/>
<feGaussianBlur stdDeviation="2"/>
<feComposite in2="hardAlpha" operator="out"/>
<feColorMatrix type="matrix" values="0 0 0 0 0 0 0 0 0 0 0 0 0 0 0 0 0 0 0.25 0"/>
<feBlend mode="normal" in2="BackgroundImageFix" result="effect1_dropShadow_57_45170"/>
<feBlend mode="normal" in="SourceGraphic" in2="effect1_dropShadow_57_45170" result="shape"/>
</filter>
</defs>
</svg>
