<svg width="20" height="20" viewBox="0 0 20 20" fill="none" xmlns="http://www.w3.org/2000/svg">
<path d="M9.91084 12.4999C10.5739 12.4999 11.2098 12.2365 11.6786 11.7677C12.1475 11.2989 12.4108 10.663 12.4108 9.99994C12.4108 9.92672 12.4075 9.85418 12.4012 9.78253L9.69343 12.4903C9.76508 12.4966 9.83741 12.4999 9.91084 12.4999ZM18.1858 2.2669L17.2323 1.31422C17.1988 1.28076 17.1534 1.26196 17.106 1.26196C17.0587 1.26196 17.0133 1.28076 16.9798 1.31422L14.5396 3.75507C13.1935 3.06713 11.6803 2.72315 10.0001 2.72315C5.70995 2.72315 2.50906 4.95753 0.39745 9.42628C0.312574 9.606 0.268555 9.8023 0.268555 10.0011C0.268555 10.1998 0.312574 10.3961 0.39745 10.5758C1.2412 12.3531 2.2572 13.7775 3.44544 14.8493L1.08406 17.2098C1.05059 17.2432 1.0318 17.2886 1.0318 17.336C1.0318 17.3833 1.05059 17.4287 1.08406 17.4622L2.03696 18.4151C2.07044 18.4486 2.11585 18.4674 2.16319 18.4674C2.21053 18.4674 2.25593 18.4486 2.28941 18.4151L18.1858 2.51958C18.2024 2.503 18.2156 2.4833 18.2246 2.46162C18.2336 2.43995 18.2382 2.41671 18.2382 2.39324C18.2382 2.36977 18.2336 2.34654 18.2246 2.32486C18.2156 2.30318 18.2024 2.28349 18.1858 2.2669ZM5.98227 9.99994C5.98221 9.32138 6.15791 8.65437 6.49224 8.0639C6.82658 7.47343 7.30816 6.97962 7.89007 6.63058C8.47198 6.28155 9.13437 6.08918 9.81271 6.07224C10.4911 6.05529 11.1622 6.21433 11.7608 6.53387L10.6756 7.61913C10.2379 7.47899 9.77007 7.46211 9.32343 7.57035C8.87679 7.67859 8.4686 7.90777 8.14363 8.23273C7.81867 8.55769 7.5895 8.96589 7.48126 9.41253C7.37302 9.85917 7.3899 10.327 7.53004 10.7647L6.44477 11.8499C6.14022 11.2809 5.98132 10.6453 5.98227 9.99994Z" fill="#17476D"/>
<path d="M19.6026 9.42421C18.8169 7.76945 17.8817 6.42012 16.797 5.37622L13.5796 8.59385C13.8508 9.30282 13.911 10.0751 13.7527 10.8175C13.5945 11.5599 13.2246 12.2406 12.6879 12.7773C12.1512 13.3141 11.4705 13.6839 10.7281 13.8422C9.9857 14.0004 9.21337 13.9403 8.50441 13.6691L5.77539 16.3981C7.04146 16.984 8.44965 17.2769 9.99994 17.2769C14.2901 17.2769 17.491 15.0425 19.6026 10.5738C19.6875 10.394 19.7315 10.1978 19.7315 9.99899C19.7315 9.80023 19.6875 9.60393 19.6026 9.42421Z" fill="black"/>
</svg>
