<svg width="20" height="20" viewBox="0 0 20 20" fill="none" xmlns="http://www.w3.org/2000/svg">
<path d="M7.41084 9.99993C7.41084 10.663 7.67424 11.2989 8.14308 11.7677C8.61192 12.2365 9.2478 12.4999 9.91084 12.4999C10.5739 12.4999 11.2098 12.2365 11.6786 11.7677C12.1475 11.2989 12.4108 10.663 12.4108 9.99993C12.4108 9.33689 12.1475 8.701 11.6786 8.23216C11.2098 7.76332 10.5739 7.49993 9.91084 7.49993C9.2478 7.49993 8.61192 7.76332 8.14308 8.23216C7.67424 8.701 7.41084 9.33689 7.41084 9.99993ZM19.6028 9.42404C17.4867 4.96645 14.2881 2.72314 10.0001 2.72314C5.70995 2.72314 2.51352 4.96645 0.39745 9.42627C0.312574 9.60599 0.268555 9.80229 0.268555 10.001C0.268555 10.1998 0.312574 10.3961 0.39745 10.5758C2.51352 15.0334 5.71218 17.2767 10.0001 17.2767C14.2903 17.2767 17.4867 15.0334 19.6028 10.5736C19.7747 10.212 19.7747 9.79234 19.6028 9.42404ZM9.91084 13.9285C7.7412 13.9285 5.98227 12.1696 5.98227 9.99993C5.98227 7.83029 7.7412 6.07136 9.91084 6.07136C12.0805 6.07136 13.8394 7.83029 13.8394 9.99993C13.8394 12.1696 12.0805 13.9285 9.91084 13.9285Z" fill="#17476D"/>
</svg>
