<svg width="1025" height="452" viewBox="0 0 1025 452" fill="none" xmlns="http://www.w3.org/2000/svg">
<rect y="0.147217" width="1024.39" height="451.853" rx="25" fill="white"/>
<rect x="96.8257" y="106.796" width="885.463" height="1.40327" fill="#F3F3F5"/>
<rect x="96.8257" y="158.717" width="885.463" height="1.40327" fill="#F3F3F5"/>
<rect x="96.8257" y="210.638" width="885.463" height="1.40327" fill="#F3F3F5"/>
<rect x="96.8257" y="262.559" width="885.463" height="1.40327" fill="#F3F3F5"/>
<rect x="96.8257" y="314.48" width="885.463" height="1.40327" fill="#F3F3F5"/>
<rect x="96.8257" y="366.4" width="885.463" height="1.40327" fill="#F3F3F5"/>
<path d="M151.236 392.758V402H150.03V392.758H151.236ZM154.207 392.758V393.761H147.066V392.758H154.207ZM156.575 392.25V402H155.4V392.25H156.575ZM156.295 398.306L155.807 398.287C155.811 397.817 155.881 397.383 156.016 396.985C156.152 396.583 156.342 396.234 156.587 395.938C156.833 395.642 157.125 395.413 157.463 395.252C157.806 395.087 158.185 395.005 158.6 395.005C158.938 395.005 159.243 395.051 159.514 395.145C159.785 395.233 160.015 395.377 160.206 395.576C160.4 395.775 160.548 396.033 160.65 396.351C160.751 396.664 160.802 397.047 160.802 397.5V402H159.622V397.487C159.622 397.127 159.569 396.839 159.463 396.624C159.357 396.403 159.203 396.245 159 396.147C158.796 396.046 158.547 395.995 158.25 395.995C157.958 395.995 157.692 396.056 157.451 396.179C157.214 396.302 157.008 396.471 156.835 396.687C156.666 396.903 156.532 397.15 156.435 397.43C156.342 397.705 156.295 397.997 156.295 398.306ZM168.991 394.58H169.892C169.892 395.041 169.831 395.428 169.708 395.741C169.59 396.054 169.38 396.289 169.08 396.446C168.779 396.602 168.356 396.681 167.81 396.681V395.957C168.191 395.957 168.464 395.91 168.629 395.817C168.794 395.72 168.896 395.57 168.934 395.367C168.972 395.164 168.991 394.901 168.991 394.58ZM166.763 400.413V395.132H167.943V402H166.82L166.763 400.413ZM166.985 398.966L167.474 398.953C167.474 399.41 167.425 399.833 167.328 400.223C167.235 400.608 167.082 400.942 166.871 401.226C166.659 401.509 166.382 401.731 166.039 401.892C165.696 402.049 165.279 402.127 164.789 402.127C164.454 402.127 164.147 402.078 163.868 401.981C163.593 401.884 163.356 401.733 163.157 401.53C162.958 401.327 162.804 401.063 162.694 400.737C162.588 400.411 162.535 400.02 162.535 399.562V395.132H163.709V399.575C163.709 399.884 163.743 400.14 163.811 400.343C163.883 400.542 163.978 400.701 164.097 400.819C164.219 400.934 164.355 401.014 164.503 401.061C164.655 401.107 164.812 401.13 164.973 401.13C165.472 401.13 165.868 401.035 166.16 400.845C166.452 400.65 166.661 400.39 166.788 400.064C166.919 399.734 166.985 399.368 166.985 398.966ZM164.7 394.25L165.931 392.383H167.347L165.646 394.25H164.7ZM179.763 401.035V402H173.713V401.156L176.741 397.785C177.114 397.37 177.401 397.019 177.604 396.731C177.812 396.439 177.956 396.179 178.036 395.951C178.121 395.718 178.163 395.481 178.163 395.24C178.163 394.935 178.1 394.66 177.973 394.415C177.85 394.165 177.668 393.966 177.427 393.818C177.186 393.67 176.894 393.596 176.551 393.596C176.14 393.596 175.798 393.676 175.522 393.837C175.252 393.993 175.049 394.214 174.913 394.497C174.778 394.781 174.71 395.106 174.71 395.475H173.536C173.536 394.954 173.65 394.478 173.878 394.046C174.107 393.615 174.445 393.272 174.894 393.018C175.343 392.76 175.895 392.631 176.551 392.631C177.135 392.631 177.634 392.735 178.049 392.942C178.464 393.145 178.781 393.433 179.001 393.805C179.225 394.173 179.337 394.605 179.337 395.1C179.337 395.371 179.291 395.646 179.198 395.925C179.109 396.2 178.984 396.475 178.823 396.75C178.667 397.026 178.483 397.296 178.271 397.563C178.064 397.83 177.841 398.092 177.604 398.35L175.129 401.035H179.763Z" fill="#718EBF"/>
<path d="M282.736 392.758V402H281.53V392.758H282.736ZM285.707 392.758V393.761H278.566V392.758H285.707ZM288.075 392.25V402H286.9V392.25H288.075ZM287.795 398.306L287.307 398.287C287.311 397.817 287.381 397.383 287.516 396.985C287.652 396.583 287.842 396.234 288.087 395.938C288.333 395.642 288.625 395.413 288.963 395.252C289.306 395.087 289.685 395.005 290.1 395.005C290.438 395.005 290.743 395.051 291.014 395.145C291.285 395.233 291.515 395.377 291.706 395.576C291.9 395.775 292.048 396.033 292.15 396.351C292.251 396.664 292.302 397.047 292.302 397.5V402H291.122V397.487C291.122 397.127 291.069 396.839 290.963 396.624C290.857 396.403 290.703 396.245 290.5 396.147C290.296 396.046 290.047 395.995 289.75 395.995C289.458 395.995 289.192 396.056 288.951 396.179C288.714 396.302 288.508 396.471 288.335 396.687C288.166 396.903 288.032 397.15 287.935 397.43C287.842 397.705 287.795 397.997 287.795 398.306ZM300.491 394.58H301.392C301.392 395.041 301.331 395.428 301.208 395.741C301.09 396.054 300.88 396.289 300.58 396.446C300.279 396.602 299.856 396.681 299.31 396.681V395.957C299.691 395.957 299.964 395.91 300.129 395.817C300.294 395.72 300.396 395.57 300.434 395.367C300.472 395.164 300.491 394.901 300.491 394.58ZM298.263 400.413V395.132H299.443V402H298.32L298.263 400.413ZM298.485 398.966L298.974 398.953C298.974 399.41 298.925 399.833 298.828 400.223C298.735 400.608 298.582 400.942 298.371 401.226C298.159 401.509 297.882 401.731 297.539 401.892C297.196 402.049 296.779 402.127 296.289 402.127C295.954 402.127 295.647 402.078 295.368 401.981C295.093 401.884 294.856 401.733 294.657 401.53C294.458 401.327 294.304 401.063 294.194 400.737C294.088 400.411 294.035 400.02 294.035 399.562V395.132H295.209V399.575C295.209 399.884 295.243 400.14 295.311 400.343C295.383 400.542 295.478 400.701 295.597 400.819C295.719 400.934 295.855 401.014 296.003 401.061C296.155 401.107 296.312 401.13 296.473 401.13C296.972 401.13 297.368 401.035 297.66 400.845C297.952 400.65 298.161 400.39 298.288 400.064C298.419 399.734 298.485 399.368 298.485 398.966ZM296.2 394.25L297.431 392.383H298.847L297.146 394.25H296.2ZM306.921 396.801H307.759C308.169 396.801 308.508 396.734 308.774 396.598C309.045 396.458 309.246 396.27 309.377 396.033C309.513 395.792 309.581 395.521 309.581 395.221C309.581 394.865 309.521 394.567 309.403 394.326C309.284 394.084 309.107 393.903 308.87 393.78C308.633 393.657 308.332 393.596 307.968 393.596C307.638 393.596 307.346 393.661 307.092 393.792C306.843 393.919 306.646 394.101 306.502 394.338C306.362 394.575 306.292 394.855 306.292 395.176H305.118C305.118 394.707 305.237 394.279 305.474 393.894C305.711 393.509 306.043 393.202 306.47 392.974C306.902 392.745 307.401 392.631 307.968 392.631C308.527 392.631 309.016 392.73 309.435 392.929C309.854 393.124 310.179 393.416 310.412 393.805C310.645 394.19 310.761 394.671 310.761 395.246C310.761 395.479 310.706 395.729 310.596 395.995C310.49 396.257 310.323 396.503 310.095 396.731C309.87 396.96 309.578 397.148 309.219 397.296C308.859 397.44 308.427 397.512 307.924 397.512H306.921V396.801ZM306.921 397.766V397.062H307.924C308.512 397.062 308.999 397.131 309.384 397.271C309.769 397.411 310.071 397.597 310.292 397.83C310.516 398.062 310.672 398.318 310.761 398.598C310.854 398.873 310.901 399.148 310.901 399.423C310.901 399.854 310.827 400.237 310.679 400.572C310.535 400.906 310.33 401.19 310.063 401.422C309.801 401.655 309.492 401.831 309.136 401.949C308.781 402.068 308.394 402.127 307.975 402.127C307.573 402.127 307.194 402.07 306.838 401.956C306.487 401.841 306.176 401.676 305.905 401.46C305.634 401.24 305.423 400.972 305.271 400.654C305.118 400.333 305.042 399.967 305.042 399.556H306.216C306.216 399.878 306.286 400.159 306.426 400.4C306.57 400.642 306.773 400.83 307.035 400.965C307.302 401.097 307.615 401.162 307.975 401.162C308.334 401.162 308.643 401.101 308.901 400.978C309.164 400.851 309.365 400.661 309.504 400.407C309.648 400.153 309.72 399.833 309.72 399.448C309.72 399.063 309.64 398.748 309.479 398.502C309.318 398.253 309.09 398.069 308.793 397.95C308.501 397.827 308.157 397.766 307.759 397.766H306.921Z" fill="#718EBF"/>
<path d="M406.736 392.758V402H405.53V392.758H406.736ZM409.707 392.758V393.761H402.566V392.758H409.707ZM412.075 392.25V402H410.9V392.25H412.075ZM411.795 398.306L411.307 398.287C411.311 397.817 411.381 397.383 411.516 396.985C411.652 396.583 411.842 396.234 412.087 395.938C412.333 395.642 412.625 395.413 412.963 395.252C413.306 395.087 413.685 395.005 414.1 395.005C414.438 395.005 414.743 395.051 415.014 395.145C415.285 395.233 415.515 395.377 415.706 395.576C415.9 395.775 416.048 396.033 416.15 396.351C416.251 396.664 416.302 397.047 416.302 397.5V402H415.122V397.487C415.122 397.127 415.069 396.839 414.963 396.624C414.857 396.403 414.703 396.245 414.5 396.147C414.296 396.046 414.047 395.995 413.75 395.995C413.458 395.995 413.192 396.056 412.951 396.179C412.714 396.302 412.508 396.471 412.335 396.687C412.166 396.903 412.032 397.15 411.935 397.43C411.842 397.705 411.795 397.997 411.795 398.306ZM424.491 394.58H425.392C425.392 395.041 425.331 395.428 425.208 395.741C425.09 396.054 424.88 396.289 424.58 396.446C424.279 396.602 423.856 396.681 423.31 396.681V395.957C423.691 395.957 423.964 395.91 424.129 395.817C424.294 395.72 424.396 395.57 424.434 395.367C424.472 395.164 424.491 394.901 424.491 394.58ZM422.263 400.413V395.132H423.443V402H422.32L422.263 400.413ZM422.485 398.966L422.974 398.953C422.974 399.41 422.925 399.833 422.828 400.223C422.735 400.608 422.582 400.942 422.371 401.226C422.159 401.509 421.882 401.731 421.539 401.892C421.196 402.049 420.779 402.127 420.289 402.127C419.954 402.127 419.647 402.078 419.368 401.981C419.093 401.884 418.856 401.733 418.657 401.53C418.458 401.327 418.304 401.063 418.194 400.737C418.088 400.411 418.035 400.02 418.035 399.562V395.132H419.209V399.575C419.209 399.884 419.243 400.14 419.311 400.343C419.383 400.542 419.478 400.701 419.597 400.819C419.719 400.934 419.855 401.014 420.003 401.061C420.155 401.107 420.312 401.13 420.473 401.13C420.972 401.13 421.368 401.035 421.66 400.845C421.952 400.65 422.161 400.39 422.288 400.064C422.419 399.734 422.485 399.368 422.485 398.966ZM420.2 394.25L421.431 392.383H422.847L421.146 394.25H420.2ZM435.453 398.89V399.854H428.775V399.163L432.914 392.758H433.873L432.844 394.611L430.108 398.89H435.453ZM434.165 392.758V402H432.99V392.758H434.165Z" fill="#718EBF"/>
<path d="M530.236 392.758V402H529.03V392.758H530.236ZM533.207 392.758V393.761H526.066V392.758H533.207ZM535.575 392.25V402H534.4V392.25H535.575ZM535.295 398.306L534.807 398.287C534.811 397.817 534.881 397.383 535.016 396.985C535.152 396.583 535.342 396.234 535.587 395.938C535.833 395.642 536.125 395.413 536.463 395.252C536.806 395.087 537.185 395.005 537.6 395.005C537.938 395.005 538.243 395.051 538.514 395.145C538.785 395.233 539.015 395.377 539.206 395.576C539.4 395.775 539.548 396.033 539.65 396.351C539.751 396.664 539.802 397.047 539.802 397.5V402H538.622V397.487C538.622 397.127 538.569 396.839 538.463 396.624C538.357 396.403 538.203 396.245 538 396.147C537.796 396.046 537.547 395.995 537.25 395.995C536.958 395.995 536.692 396.056 536.451 396.179C536.214 396.302 536.008 396.471 535.835 396.687C535.666 396.903 535.532 397.15 535.435 397.43C535.342 397.705 535.295 397.997 535.295 398.306ZM547.991 394.58H548.892C548.892 395.041 548.831 395.428 548.708 395.741C548.59 396.054 548.38 396.289 548.08 396.446C547.779 396.602 547.356 396.681 546.81 396.681V395.957C547.191 395.957 547.464 395.91 547.629 395.817C547.794 395.72 547.896 395.57 547.934 395.367C547.972 395.164 547.991 394.901 547.991 394.58ZM545.763 400.413V395.132H546.943V402H545.82L545.763 400.413ZM545.985 398.966L546.474 398.953C546.474 399.41 546.425 399.833 546.328 400.223C546.235 400.608 546.082 400.942 545.871 401.226C545.659 401.509 545.382 401.731 545.039 401.892C544.696 402.049 544.279 402.127 543.789 402.127C543.454 402.127 543.147 402.078 542.868 401.981C542.593 401.884 542.356 401.733 542.157 401.53C541.958 401.327 541.804 401.063 541.694 400.737C541.588 400.411 541.535 400.02 541.535 399.562V395.132H542.709V399.575C542.709 399.884 542.743 400.14 542.811 400.343C542.883 400.542 542.978 400.701 543.097 400.819C543.219 400.934 543.355 401.014 543.503 401.061C543.655 401.107 543.812 401.13 543.973 401.13C544.472 401.13 544.868 401.035 545.16 400.845C545.452 400.65 545.661 400.39 545.788 400.064C545.919 399.734 545.985 399.368 545.985 398.966ZM543.7 394.25L544.931 392.383H546.347L544.646 394.25H543.7ZM554.192 397.601L553.253 397.36L553.716 392.758H558.458V393.843H554.713L554.434 396.357C554.603 396.26 554.817 396.169 555.075 396.084C555.337 395.999 555.638 395.957 555.976 395.957C556.403 395.957 556.786 396.031 557.125 396.179C557.464 396.323 557.751 396.53 557.988 396.801C558.229 397.072 558.414 397.398 558.541 397.779C558.667 398.16 558.731 398.585 558.731 399.055C558.731 399.499 558.67 399.907 558.547 400.28C558.428 400.652 558.249 400.978 558.007 401.257C557.766 401.532 557.461 401.746 557.093 401.898C556.729 402.051 556.3 402.127 555.805 402.127C555.432 402.127 555.079 402.076 554.745 401.975C554.415 401.869 554.118 401.71 553.856 401.499C553.598 401.283 553.386 401.016 553.221 400.699C553.06 400.377 552.959 400 552.917 399.569H554.034C554.084 399.916 554.186 400.208 554.338 400.445C554.491 400.682 554.69 400.862 554.935 400.984C555.185 401.103 555.475 401.162 555.805 401.162C556.084 401.162 556.332 401.113 556.547 401.016C556.763 400.919 556.945 400.779 557.093 400.597C557.241 400.415 557.354 400.195 557.43 399.937C557.51 399.679 557.55 399.389 557.55 399.067C557.55 398.775 557.51 398.505 557.43 398.255C557.349 398.005 557.229 397.787 557.068 397.601C556.911 397.415 556.719 397.271 556.49 397.169C556.262 397.064 555.999 397.011 555.703 397.011C555.31 397.011 555.011 397.064 554.808 397.169C554.609 397.275 554.404 397.419 554.192 397.601Z" fill="#718EBF"/>
<path d="M655.236 392.758V402H654.03V392.758H655.236ZM658.207 392.758V393.761H651.066V392.758H658.207ZM660.575 392.25V402H659.4V392.25H660.575ZM660.295 398.306L659.807 398.287C659.811 397.817 659.881 397.383 660.016 396.985C660.152 396.583 660.342 396.234 660.587 395.938C660.833 395.642 661.125 395.413 661.463 395.252C661.806 395.087 662.185 395.005 662.6 395.005C662.938 395.005 663.243 395.051 663.514 395.145C663.785 395.233 664.015 395.377 664.206 395.576C664.4 395.775 664.548 396.033 664.65 396.351C664.751 396.664 664.802 397.047 664.802 397.5V402H663.622V397.487C663.622 397.127 663.569 396.839 663.463 396.624C663.357 396.403 663.203 396.245 663 396.147C662.796 396.046 662.547 395.995 662.25 395.995C661.958 395.995 661.692 396.056 661.451 396.179C661.214 396.302 661.008 396.471 660.835 396.687C660.666 396.903 660.532 397.15 660.435 397.43C660.342 397.705 660.295 397.997 660.295 398.306ZM672.991 394.58H673.892C673.892 395.041 673.831 395.428 673.708 395.741C673.59 396.054 673.38 396.289 673.08 396.446C672.779 396.602 672.356 396.681 671.81 396.681V395.957C672.191 395.957 672.464 395.91 672.629 395.817C672.794 395.72 672.896 395.57 672.934 395.367C672.972 395.164 672.991 394.901 672.991 394.58ZM670.763 400.413V395.132H671.943V402H670.82L670.763 400.413ZM670.985 398.966L671.474 398.953C671.474 399.41 671.425 399.833 671.328 400.223C671.235 400.608 671.082 400.942 670.871 401.226C670.659 401.509 670.382 401.731 670.039 401.892C669.696 402.049 669.279 402.127 668.789 402.127C668.454 402.127 668.147 402.078 667.868 401.981C667.593 401.884 667.356 401.733 667.157 401.53C666.958 401.327 666.804 401.063 666.694 400.737C666.588 400.411 666.535 400.02 666.535 399.562V395.132H667.709V399.575C667.709 399.884 667.743 400.14 667.811 400.343C667.883 400.542 667.978 400.701 668.097 400.819C668.219 400.934 668.355 401.014 668.503 401.061C668.655 401.107 668.812 401.13 668.973 401.13C669.472 401.13 669.868 401.035 670.16 400.845C670.452 400.65 670.661 400.39 670.788 400.064C670.919 399.734 670.985 399.368 670.985 398.966ZM668.7 394.25L669.931 392.383H671.347L669.646 394.25H668.7ZM682.214 392.745H682.315V393.742H682.214C681.592 393.742 681.071 393.843 680.652 394.046C680.233 394.245 679.901 394.514 679.656 394.853C679.41 395.187 679.233 395.563 679.123 395.982C679.017 396.401 678.964 396.827 678.964 397.258V398.617C678.964 399.027 679.013 399.391 679.11 399.708C679.207 400.022 679.34 400.286 679.51 400.502C679.679 400.718 679.869 400.881 680.081 400.991C680.297 401.101 680.521 401.156 680.754 401.156C681.025 401.156 681.266 401.105 681.478 401.003C681.689 400.898 681.867 400.752 682.011 400.565C682.159 400.375 682.271 400.151 682.347 399.893C682.423 399.634 682.461 399.351 682.461 399.042C682.461 398.767 682.428 398.502 682.36 398.249C682.292 397.99 682.188 397.762 682.049 397.563C681.909 397.36 681.734 397.201 681.522 397.087C681.315 396.968 681.067 396.909 680.779 396.909C680.453 396.909 680.149 396.99 679.865 397.15C679.586 397.307 679.355 397.514 679.173 397.772C678.996 398.026 678.894 398.304 678.869 398.604L678.247 398.598C678.306 398.124 678.416 397.72 678.577 397.385C678.742 397.047 678.945 396.772 679.186 396.56C679.431 396.344 679.704 396.188 680.005 396.09C680.31 395.989 680.631 395.938 680.97 395.938C681.431 395.938 681.829 396.025 682.163 396.198C682.497 396.372 682.772 396.604 682.988 396.896C683.204 397.184 683.363 397.51 683.464 397.874C683.57 398.234 683.623 398.604 683.623 398.985C683.623 399.421 683.562 399.829 683.439 400.21C683.316 400.591 683.132 400.925 682.887 401.213C682.646 401.501 682.347 401.725 681.992 401.886C681.636 402.047 681.224 402.127 680.754 402.127C680.255 402.127 679.819 402.025 679.446 401.822C679.074 401.615 678.765 401.34 678.52 400.997C678.274 400.654 678.09 400.273 677.967 399.854C677.845 399.436 677.783 399.01 677.783 398.579V398.026C677.783 397.375 677.849 396.736 677.98 396.109C678.111 395.483 678.338 394.916 678.659 394.408C678.985 393.9 679.436 393.496 680.011 393.196C680.587 392.895 681.321 392.745 682.214 392.745Z" fill="#718EBF"/>
<path d="M778.236 392.758V402H777.03V392.758H778.236ZM781.207 392.758V393.761H774.066V392.758H781.207ZM783.575 392.25V402H782.4V392.25H783.575ZM783.295 398.306L782.807 398.287C782.811 397.817 782.881 397.383 783.016 396.985C783.152 396.583 783.342 396.234 783.587 395.938C783.833 395.642 784.125 395.413 784.463 395.252C784.806 395.087 785.185 395.005 785.6 395.005C785.938 395.005 786.243 395.051 786.514 395.145C786.785 395.233 787.015 395.377 787.206 395.576C787.4 395.775 787.548 396.033 787.65 396.351C787.751 396.664 787.802 397.047 787.802 397.5V402H786.622V397.487C786.622 397.127 786.569 396.839 786.463 396.624C786.357 396.403 786.203 396.245 786 396.147C785.796 396.046 785.547 395.995 785.25 395.995C784.958 395.995 784.692 396.056 784.451 396.179C784.214 396.302 784.008 396.471 783.835 396.687C783.666 396.903 783.532 397.15 783.435 397.43C783.342 397.705 783.295 397.997 783.295 398.306ZM795.991 394.58H796.892C796.892 395.041 796.831 395.428 796.708 395.741C796.59 396.054 796.38 396.289 796.08 396.446C795.779 396.602 795.356 396.681 794.81 396.681V395.957C795.191 395.957 795.464 395.91 795.629 395.817C795.794 395.72 795.896 395.57 795.934 395.367C795.972 395.164 795.991 394.901 795.991 394.58ZM793.763 400.413V395.132H794.943V402H793.82L793.763 400.413ZM793.985 398.966L794.474 398.953C794.474 399.41 794.425 399.833 794.328 400.223C794.235 400.608 794.082 400.942 793.871 401.226C793.659 401.509 793.382 401.731 793.039 401.892C792.696 402.049 792.279 402.127 791.789 402.127C791.454 402.127 791.147 402.078 790.868 401.981C790.593 401.884 790.356 401.733 790.157 401.53C789.958 401.327 789.804 401.063 789.694 400.737C789.588 400.411 789.535 400.02 789.535 399.562V395.132H790.709V399.575C790.709 399.884 790.743 400.14 790.811 400.343C790.883 400.542 790.978 400.701 791.097 400.819C791.219 400.934 791.355 401.014 791.503 401.061C791.655 401.107 791.812 401.13 791.973 401.13C792.472 401.13 792.868 401.035 793.16 400.845C793.452 400.65 793.661 400.39 793.788 400.064C793.919 399.734 793.985 399.368 793.985 398.966ZM791.7 394.25L792.931 392.383H794.347L792.646 394.25H791.7ZM806.68 392.758V393.418L802.853 402H801.615L805.436 393.723H800.434V392.758H806.68Z" fill="#718EBF"/>
<path d="M896.692 399.061H897.911C897.848 399.645 897.681 400.168 897.41 400.629C897.139 401.09 896.756 401.456 896.261 401.727C895.766 401.994 895.148 402.127 894.407 402.127C893.866 402.127 893.373 402.025 892.928 401.822C892.488 401.619 892.109 401.331 891.792 400.959C891.475 400.582 891.229 400.132 891.056 399.607C890.886 399.078 890.802 398.49 890.802 397.842V396.922C890.802 396.274 890.886 395.688 891.056 395.164C891.229 394.635 891.477 394.182 891.798 393.805C892.124 393.429 892.516 393.139 892.973 392.936C893.43 392.732 893.944 392.631 894.515 392.631C895.213 392.631 895.804 392.762 896.286 393.024C896.769 393.287 897.143 393.651 897.41 394.116C897.681 394.577 897.848 395.113 897.911 395.722H896.692C896.633 395.291 896.523 394.92 896.362 394.611C896.201 394.298 895.973 394.057 895.677 393.888C895.381 393.718 894.993 393.634 894.515 393.634C894.105 393.634 893.743 393.712 893.43 393.869C893.121 394.025 892.861 394.247 892.649 394.535C892.442 394.823 892.285 395.168 892.179 395.57C892.073 395.972 892.021 396.418 892.021 396.909V397.842C892.021 398.295 892.067 398.72 892.16 399.118C892.257 399.516 892.403 399.865 892.598 400.166C892.793 400.466 893.04 400.703 893.341 400.876C893.641 401.046 893.997 401.13 894.407 401.13C894.928 401.13 895.342 401.048 895.651 400.883C895.96 400.718 896.193 400.481 896.35 400.172C896.51 399.863 896.625 399.493 896.692 399.061ZM900.577 392.25V402H899.403V392.25H900.577ZM900.298 398.306L899.809 398.287C899.813 397.817 899.883 397.383 900.019 396.985C900.154 396.583 900.344 396.234 900.59 395.938C900.835 395.642 901.127 395.413 901.466 395.252C901.809 395.087 902.187 395.005 902.602 395.005C902.941 395.005 903.245 395.051 903.516 395.145C903.787 395.233 904.018 395.377 904.208 395.576C904.403 395.775 904.551 396.033 904.652 396.351C904.754 396.664 904.805 397.047 904.805 397.5V402H903.624V397.487C903.624 397.127 903.571 396.839 903.465 396.624C903.36 396.403 903.205 396.245 903.002 396.147C902.799 396.046 902.549 395.995 902.253 395.995C901.961 395.995 901.694 396.056 901.453 396.179C901.216 396.302 901.011 396.471 900.837 396.687C900.668 396.903 900.535 397.15 900.438 397.43C900.344 397.705 900.298 397.997 900.298 398.306ZM910.765 400.413V395.132H911.946V402H910.822L910.765 400.413ZM910.987 398.966L911.476 398.953C911.476 399.41 911.427 399.833 911.33 400.223C911.237 400.608 911.085 400.942 910.873 401.226C910.661 401.509 910.384 401.731 910.042 401.892C909.699 402.049 909.282 402.127 908.791 402.127C908.457 402.127 908.15 402.078 907.871 401.981C907.596 401.884 907.359 401.733 907.16 401.53C906.961 401.327 906.806 401.063 906.696 400.737C906.59 400.411 906.538 400.02 906.538 399.562V395.132H907.712V399.575C907.712 399.884 907.746 400.14 907.813 400.343C907.885 400.542 907.981 400.701 908.099 400.819C908.222 400.934 908.357 401.014 908.505 401.061C908.658 401.107 908.814 401.13 908.975 401.13C909.474 401.13 909.87 401.035 910.162 400.845C910.454 400.65 910.664 400.39 910.791 400.064C910.922 399.734 910.987 399.368 910.987 398.966ZM909.711 394.015H908.867L908.861 393.05C909.077 393.037 909.252 393.016 909.388 392.986C909.523 392.952 909.623 392.904 909.686 392.84C909.75 392.773 909.781 392.684 909.781 392.574C909.781 392.485 909.754 392.411 909.699 392.352C909.644 392.288 909.568 392.237 909.47 392.199C909.373 392.157 909.261 392.127 909.134 392.11C909.007 392.093 908.871 392.085 908.728 392.085L908.772 391.412C909.085 391.412 909.36 391.44 909.597 391.495C909.838 391.55 910.039 391.63 910.2 391.736C910.365 391.842 910.488 391.969 910.568 392.117C910.653 392.261 910.695 392.421 910.695 392.599C910.695 392.921 910.594 393.156 910.391 393.304C910.188 393.448 909.963 393.536 909.718 393.57L909.711 394.015ZM921.359 396.598V402H920.185V395.132H921.296L921.359 396.598ZM921.08 398.306L920.591 398.287C920.596 397.817 920.665 397.383 920.801 396.985C920.936 396.583 921.127 396.234 921.372 395.938C921.618 395.642 921.91 395.413 922.248 395.252C922.591 395.087 922.97 395.005 923.384 395.005C923.723 395.005 924.028 395.051 924.298 395.145C924.569 395.233 924.8 395.377 924.99 395.576C925.185 395.775 925.333 396.033 925.435 396.351C925.536 396.664 925.587 397.047 925.587 397.5V402H924.406V397.487C924.406 397.127 924.353 396.839 924.248 396.624C924.142 396.403 923.987 396.245 923.784 396.147C923.581 396.046 923.331 395.995 923.035 395.995C922.743 395.995 922.477 396.056 922.235 396.179C921.998 396.302 921.793 396.471 921.62 396.687C921.45 396.903 921.317 397.15 921.22 397.43C921.127 397.705 921.08 397.997 921.08 398.306ZM928.545 392.25V402H927.371V392.25H928.545ZM928.266 398.306L927.777 398.287C927.781 397.817 927.851 397.383 927.986 396.985C928.122 396.583 928.312 396.234 928.558 395.938C928.803 395.642 929.095 395.413 929.434 395.252C929.776 395.087 930.155 395.005 930.57 395.005C930.908 395.005 931.213 395.051 931.484 395.145C931.755 395.233 931.985 395.377 932.176 395.576C932.37 395.775 932.519 396.033 932.62 396.351C932.722 396.664 932.772 397.047 932.772 397.5V402H931.592V397.487C931.592 397.127 931.539 396.839 931.433 396.624C931.327 396.403 931.173 396.245 930.97 396.147C930.767 396.046 930.517 395.995 930.221 395.995C929.929 395.995 929.662 396.056 929.421 396.179C929.184 396.302 928.979 396.471 928.805 396.687C928.636 396.903 928.503 397.15 928.405 397.43C928.312 397.705 928.266 397.997 928.266 398.306ZM938.581 400.826V397.29C938.581 397.019 938.526 396.784 938.416 396.585C938.31 396.382 938.149 396.226 937.933 396.116C937.717 396.006 937.451 395.951 937.133 395.951C936.837 395.951 936.577 396.001 936.353 396.103C936.132 396.205 935.959 396.338 935.832 396.503C935.709 396.668 935.648 396.846 935.648 397.036H934.474C934.474 396.791 934.537 396.547 934.664 396.306C934.791 396.065 934.973 395.847 935.21 395.652C935.451 395.453 935.739 395.297 936.073 395.183C936.412 395.064 936.788 395.005 937.203 395.005C937.702 395.005 938.143 395.09 938.523 395.259C938.909 395.428 939.209 395.684 939.425 396.027C939.645 396.365 939.755 396.791 939.755 397.303V400.502C939.755 400.73 939.774 400.974 939.812 401.232C939.854 401.49 939.916 401.712 939.996 401.898V402H938.771C938.712 401.865 938.665 401.685 938.631 401.46C938.597 401.232 938.581 401.02 938.581 400.826ZM938.784 397.836L938.796 398.661H937.609C937.275 398.661 936.977 398.689 936.714 398.744C936.452 398.794 936.232 398.873 936.054 398.979C935.876 399.084 935.741 399.218 935.648 399.378C935.555 399.535 935.508 399.719 935.508 399.931C935.508 400.146 935.557 400.343 935.654 400.521C935.752 400.699 935.898 400.84 936.092 400.946C936.291 401.048 936.535 401.099 936.822 401.099C937.182 401.099 937.499 401.022 937.774 400.87C938.049 400.718 938.267 400.532 938.428 400.312C938.593 400.091 938.682 399.878 938.695 399.67L939.196 400.235C939.167 400.413 939.086 400.61 938.955 400.826C938.824 401.042 938.648 401.249 938.428 401.448C938.212 401.642 937.954 401.805 937.654 401.937C937.358 402.063 937.023 402.127 936.651 402.127C936.185 402.127 935.777 402.036 935.426 401.854C935.079 401.672 934.808 401.429 934.613 401.124C934.423 400.815 934.328 400.47 934.328 400.089C934.328 399.721 934.4 399.397 934.543 399.118C934.687 398.835 934.895 398.6 935.166 398.414C935.436 398.223 935.762 398.079 936.143 397.982C936.524 397.885 936.949 397.836 937.419 397.836H938.784ZM937.686 392.25L939.26 393.983V394.046H938.282L937.33 392.974L936.384 394.046H935.419V393.977L936.975 392.25H937.686ZM936.092 403.562C936.092 403.371 936.149 403.21 936.264 403.079C936.382 402.948 936.556 402.882 936.784 402.882C937.008 402.882 937.18 402.948 937.298 403.079C937.421 403.21 937.482 403.371 937.482 403.562C937.482 403.743 937.421 403.898 937.298 404.025C937.18 404.156 937.008 404.222 936.784 404.222C936.556 404.222 936.382 404.156 936.264 404.025C936.149 403.898 936.092 403.743 936.092 403.562ZM944.478 395.132V396.033H940.764V395.132H944.478ZM942.021 393.462H943.195V400.299C943.195 400.532 943.231 400.707 943.303 400.826C943.375 400.944 943.468 401.022 943.583 401.061C943.697 401.099 943.819 401.118 943.951 401.118C944.048 401.118 944.15 401.109 944.255 401.092C944.365 401.071 944.448 401.054 944.503 401.042L944.509 402C944.416 402.03 944.293 402.057 944.141 402.083C943.993 402.112 943.813 402.127 943.602 402.127C943.314 402.127 943.049 402.07 942.808 401.956C942.567 401.841 942.374 401.651 942.23 401.384C942.091 401.113 942.021 400.75 942.021 400.292V393.462Z" fill="#718EBF"/>
<path d="M60.7389 103.171L59.7995 102.929L60.2628 98.3274H65.0045V99.4128H61.2594L60.9801 101.927C61.1494 101.829 61.3631 101.738 61.6212 101.654C61.8836 101.569 62.1841 101.527 62.5226 101.527C62.95 101.527 63.333 101.601 63.6715 101.749C64.0101 101.893 64.2978 102.1 64.5348 102.371C64.776 102.642 64.9601 102.968 65.0871 103.348C65.214 103.729 65.2775 104.155 65.2775 104.624C65.2775 105.069 65.2161 105.477 65.0934 105.849C64.9749 106.222 64.7951 106.548 64.5539 106.827C64.3126 107.102 64.008 107.316 63.6398 107.468C63.2759 107.62 62.8463 107.697 62.3512 107.697C61.9788 107.697 61.6255 107.646 61.2912 107.544C60.9611 107.438 60.6649 107.28 60.4025 107.068C60.1443 106.852 59.9328 106.586 59.7677 106.268C59.6069 105.947 59.5053 105.57 59.463 105.138H60.5802C60.631 105.485 60.7326 105.777 60.8849 106.014C61.0373 106.251 61.2361 106.431 61.4816 106.554C61.7313 106.672 62.0211 106.732 62.3512 106.732C62.6305 106.732 62.8781 106.683 63.0939 106.586C63.3097 106.488 63.4917 106.349 63.6398 106.167C63.7879 105.985 63.9 105.765 63.9762 105.507C64.0566 105.248 64.0968 104.959 64.0968 104.637C64.0968 104.345 64.0566 104.074 63.9762 103.824C63.8958 103.575 63.7752 103.357 63.6144 103.171C63.4578 102.984 63.2653 102.841 63.0368 102.739C62.8082 102.633 62.5459 102.58 62.2497 102.58C61.8561 102.58 61.5578 102.633 61.3546 102.739C61.1557 102.845 60.9505 102.989 60.7389 103.171ZM72.3678 102.212V103.621C72.3678 104.379 72.3001 105.018 72.1647 105.538C72.0293 106.059 71.8346 106.478 71.5807 106.795C71.3268 107.113 71.02 107.343 70.6603 107.487C70.3048 107.627 69.9028 107.697 69.4542 107.697C69.0988 107.697 68.7708 107.652 68.4704 107.563C68.1699 107.474 67.8991 107.333 67.6579 107.138C67.4209 106.939 67.2178 106.681 67.0485 106.364C66.8792 106.046 66.7501 105.661 66.6613 105.208C66.5724 104.755 66.528 104.226 66.528 103.621V102.212C66.528 101.455 66.5957 100.82 66.7311 100.308C66.8707 99.7958 67.0675 99.3853 67.3214 99.0764C67.5753 98.7633 67.88 98.539 68.2355 98.4036C68.5952 98.2681 68.9972 98.2004 69.4415 98.2004C69.8012 98.2004 70.1313 98.2449 70.4318 98.3337C70.7365 98.4184 71.0073 98.5559 71.2443 98.7463C71.4813 98.9325 71.6823 99.1822 71.8473 99.4954C72.0166 99.8043 72.1456 100.183 72.2345 100.632C72.3234 101.08 72.3678 101.607 72.3678 102.212ZM71.1872 103.812V102.015C71.1872 101.601 71.1618 101.237 71.111 100.924C71.0644 100.606 70.9946 100.335 70.9015 100.111C70.8084 99.8868 70.6899 99.7048 70.546 99.5652C70.4064 99.4255 70.2435 99.324 70.0573 99.2605C69.8753 99.1928 69.6701 99.1589 69.4415 99.1589C69.1623 99.1589 68.9147 99.2118 68.6989 99.3176C68.4831 99.4192 68.3011 99.5821 68.153 99.8064C68.0091 100.031 67.8991 100.325 67.8229 100.689C67.7467 101.053 67.7086 101.495 67.7086 102.015V103.812C67.7086 104.226 67.7319 104.593 67.7785 104.91C67.8292 105.227 67.9033 105.502 68.0006 105.735C68.098 105.964 68.2164 106.152 68.3561 106.3C68.4957 106.448 68.6566 106.558 68.8385 106.63C69.0247 106.698 69.23 106.732 69.4542 106.732C69.742 106.732 69.9938 106.677 70.2096 106.567C70.4254 106.457 70.6053 106.285 70.7492 106.052C70.8973 105.816 71.0073 105.513 71.0792 105.145C71.1512 104.772 71.1872 104.328 71.1872 103.812ZM79.6803 102.212V103.621C79.6803 104.379 79.6126 105.018 79.4772 105.538C79.3418 106.059 79.1471 106.478 78.8932 106.795C78.6393 107.113 78.3325 107.343 77.9728 107.487C77.6173 107.627 77.2153 107.697 76.7667 107.697C76.4113 107.697 76.0833 107.652 75.7829 107.563C75.4824 107.474 75.2116 107.333 74.9704 107.138C74.7334 106.939 74.5303 106.681 74.361 106.364C74.1917 106.046 74.0626 105.661 73.9738 105.208C73.8849 104.755 73.8405 104.226 73.8405 103.621V102.212C73.8405 101.455 73.9082 100.82 74.0436 100.308C74.1832 99.7958 74.38 99.3853 74.6339 99.0764C74.8878 98.7633 75.1925 98.539 75.548 98.4036C75.9077 98.2681 76.3097 98.2004 76.754 98.2004C77.1137 98.2004 77.4438 98.2449 77.7443 98.3337C78.049 98.4184 78.3198 98.5559 78.5568 98.7463C78.7938 98.9325 78.9948 99.1822 79.1598 99.4954C79.3291 99.8043 79.4581 100.183 79.547 100.632C79.6359 101.08 79.6803 101.607 79.6803 102.212ZM78.4997 103.812V102.015C78.4997 101.601 78.4743 101.237 78.4235 100.924C78.3769 100.606 78.3071 100.335 78.214 100.111C78.1209 99.8868 78.0024 99.7048 77.8585 99.5652C77.7189 99.4255 77.556 99.324 77.3698 99.2605C77.1878 99.1928 76.9826 99.1589 76.754 99.1589C76.4748 99.1589 76.2272 99.2118 76.0114 99.3176C75.7956 99.4192 75.6136 99.5821 75.4655 99.8064C75.3216 100.031 75.2116 100.325 75.1354 100.689C75.0592 101.053 75.0211 101.495 75.0211 102.015V103.812C75.0211 104.226 75.0444 104.593 75.091 104.91C75.1417 105.227 75.2158 105.502 75.3131 105.735C75.4105 105.964 75.5289 106.152 75.6686 106.3C75.8082 106.448 75.9691 106.558 76.151 106.63C76.3372 106.698 76.5425 106.732 76.7667 106.732C77.0545 106.732 77.3063 106.677 77.5221 106.567C77.7379 106.457 77.9178 106.285 78.0617 106.052C78.2098 105.816 78.3198 105.513 78.3917 105.145C78.4637 104.772 78.4997 104.328 78.4997 103.812Z" fill="#718EBF"/>
<path d="M68.526 157.727V158.692H61.8483V158L65.987 151.595H66.9455L65.9171 153.449L63.1813 157.727H68.526ZM67.2374 151.595V160.838H66.0631V151.595H67.2374ZM75.3942 155.48V156.889C75.3942 157.647 75.3265 158.286 75.1911 158.806C75.0556 159.327 74.861 159.746 74.6071 160.063C74.3532 160.381 74.0464 160.611 73.6867 160.755C73.3312 160.895 72.9292 160.965 72.4806 160.965C72.1251 160.965 71.7972 160.92 71.4967 160.831C71.1963 160.742 70.9254 160.601 70.6842 160.406C70.4472 160.207 70.2441 159.949 70.0748 159.632C69.9056 159.314 69.7765 158.929 69.6876 158.476C69.5988 158.024 69.5543 157.495 69.5543 156.889V155.48C69.5543 154.723 69.622 154.088 69.7575 153.576C69.8971 153.064 70.0939 152.653 70.3478 152.344C70.6017 152.031 70.9064 151.807 71.2619 151.672C71.6216 151.536 72.0236 151.469 72.4679 151.469C72.8276 151.469 73.1577 151.513 73.4581 151.602C73.7628 151.686 74.0337 151.824 74.2706 152.014C74.5076 152.201 74.7086 152.45 74.8737 152.763C75.0429 153.072 75.172 153.451 75.2609 153.9C75.3498 154.348 75.3942 154.875 75.3942 155.48ZM74.2135 157.08V155.283C74.2135 154.869 74.1881 154.505 74.1373 154.192C74.0908 153.874 74.021 153.603 73.9279 153.379C73.8348 153.155 73.7163 152.973 73.5724 152.833C73.4328 152.694 73.2698 152.592 73.0836 152.529C72.9017 152.461 72.6964 152.427 72.4679 152.427C72.1886 152.427 71.9411 152.48 71.7252 152.586C71.5094 152.687 71.3275 152.85 71.1793 153.074C71.0355 153.299 70.9254 153.593 70.8493 153.957C70.7731 154.321 70.735 154.763 70.735 155.283V157.08C70.735 157.495 70.7583 157.861 70.8048 158.178C70.8556 158.495 70.9297 158.77 71.027 159.003C71.1243 159.232 71.2428 159.42 71.3825 159.568C71.5221 159.716 71.6829 159.826 71.8649 159.898C72.0511 159.966 72.2563 160 72.4806 160C72.7684 160 73.0202 159.945 73.236 159.835C73.4518 159.725 73.6317 159.553 73.7755 159.321C73.9236 159.084 74.0337 158.781 74.1056 158.413C74.1775 158.04 74.2135 157.596 74.2135 157.08ZM82.7067 155.48V156.889C82.7067 157.647 82.639 158.286 82.5036 158.806C82.3681 159.327 82.1735 159.746 81.9196 160.063C81.6657 160.381 81.3589 160.611 80.9992 160.755C80.6437 160.895 80.2417 160.965 79.7931 160.965C79.4376 160.965 79.1097 160.92 78.8092 160.831C78.5088 160.742 78.2379 160.601 77.9967 160.406C77.7597 160.207 77.5566 159.949 77.3873 159.632C77.2181 159.314 77.089 158.929 77.0001 158.476C76.9113 158.024 76.8668 157.495 76.8668 156.889V155.48C76.8668 154.723 76.9345 154.088 77.07 153.576C77.2096 153.064 77.4064 152.653 77.6603 152.344C77.9142 152.031 78.2189 151.807 78.5744 151.672C78.9341 151.536 79.3361 151.469 79.7804 151.469C80.1401 151.469 80.4702 151.513 80.7706 151.602C81.0753 151.686 81.3462 151.824 81.5831 152.014C81.8201 152.201 82.0211 152.45 82.1862 152.763C82.3554 153.072 82.4845 153.451 82.5734 153.9C82.6623 154.348 82.7067 154.875 82.7067 155.48ZM81.526 157.08V155.283C81.526 154.869 81.5006 154.505 81.4498 154.192C81.4033 153.874 81.3335 153.603 81.2404 153.379C81.1473 153.155 81.0288 152.973 80.8849 152.833C80.7453 152.694 80.5823 152.592 80.3961 152.529C80.2142 152.461 80.0089 152.427 79.7804 152.427C79.5011 152.427 79.2536 152.48 79.0377 152.586C78.8219 152.687 78.64 152.85 78.4918 153.074C78.348 153.299 78.2379 153.593 78.1618 153.957C78.0856 154.321 78.0475 154.763 78.0475 155.283V157.08C78.0475 157.495 78.0708 157.861 78.1173 158.178C78.1681 158.495 78.2422 158.77 78.3395 159.003C78.4368 159.232 78.5553 159.42 78.695 159.568C78.8346 159.716 78.9954 159.826 79.1774 159.898C79.3636 159.966 79.5688 160 79.7931 160C80.0809 160 80.3327 159.945 80.5485 159.835C80.7643 159.725 80.9442 159.553 81.088 159.321C81.2361 159.084 81.3462 158.781 81.4181 158.413C81.49 158.04 81.526 157.596 81.526 157.08Z" fill="#718EBF"/>
<path d="M63.9938 207.085H64.8317C65.2422 207.085 65.5807 207.018 65.8473 206.882C66.1181 206.743 66.3192 206.554 66.4503 206.317C66.5858 206.076 66.6535 205.805 66.6535 205.505C66.6535 205.149 66.5942 204.851 66.4757 204.61C66.3572 204.369 66.1795 204.187 65.9425 204.064C65.7055 203.941 65.4051 203.88 65.0412 203.88C64.7111 203.88 64.4191 203.945 64.1652 204.077C63.9155 204.204 63.7187 204.386 63.5748 204.623C63.4352 204.86 63.3654 205.139 63.3654 205.46H62.1911C62.1911 204.991 62.3095 204.563 62.5465 204.178C62.7835 203.793 63.1157 203.486 63.5431 203.258C63.9748 203.029 64.4741 202.915 65.0412 202.915C65.5998 202.915 66.0885 203.014 66.5075 203.213C66.9264 203.408 67.2523 203.7 67.485 204.089C67.7178 204.474 67.8341 204.955 67.8341 205.53C67.8341 205.763 67.7791 206.013 67.6691 206.279C67.5633 206.542 67.3961 206.787 67.1676 207.016C66.9433 207.244 66.6513 207.432 66.2916 207.581C65.9319 207.724 65.5003 207.796 64.9967 207.796H63.9938V207.085ZM63.9938 208.05V207.346H64.9967C65.5849 207.346 66.0716 207.416 66.4567 207.555C66.8418 207.695 67.1443 207.881 67.3644 208.114C67.5887 208.347 67.7453 208.603 67.8341 208.882C67.9272 209.157 67.9738 209.432 67.9738 209.707C67.9738 210.139 67.8997 210.522 67.7516 210.856C67.6077 211.19 67.4025 211.474 67.1359 211.707C66.8735 211.939 66.5646 212.115 66.2091 212.233C65.8537 212.352 65.4664 212.411 65.0475 212.411C64.6455 212.411 64.2667 212.354 63.9113 212.24C63.56 212.125 63.249 211.96 62.9782 211.745C62.7073 211.525 62.4957 211.256 62.3434 210.938C62.1911 210.617 62.1149 210.251 62.1149 209.84H63.2892C63.2892 210.162 63.359 210.443 63.4987 210.685C63.6426 210.926 63.8457 211.114 64.1081 211.25C64.3747 211.381 64.6878 211.446 65.0475 211.446C65.4072 211.446 65.7161 211.385 65.9743 211.262C66.2366 211.135 66.4376 210.945 66.5773 210.691C66.7212 210.437 66.7931 210.118 66.7931 209.732C66.7931 209.347 66.7127 209.032 66.5519 208.787C66.3911 208.537 66.1626 208.353 65.8664 208.234C65.5744 208.112 65.2295 208.05 64.8317 208.05H63.9938ZM75.3942 206.927V208.336C75.3942 209.093 75.3265 209.732 75.1911 210.253C75.0556 210.773 74.861 211.192 74.6071 211.51C74.3532 211.827 74.0464 212.058 73.6867 212.202C73.3312 212.341 72.9292 212.411 72.4806 212.411C72.1251 212.411 71.7972 212.367 71.4967 212.278C71.1963 212.189 70.9254 212.047 70.6842 211.853C70.4472 211.654 70.2441 211.396 70.0748 211.078C69.9056 210.761 69.7765 210.376 69.6876 209.923C69.5988 209.47 69.5543 208.941 69.5543 208.336V206.927C69.5543 206.169 69.622 205.535 69.7575 205.022C69.8971 204.51 70.0939 204.1 70.3478 203.791C70.6017 203.478 70.9064 203.254 71.2619 203.118C71.6216 202.983 72.0236 202.915 72.4679 202.915C72.8276 202.915 73.1577 202.959 73.4581 203.048C73.7628 203.133 74.0337 203.271 74.2706 203.461C74.5076 203.647 74.7086 203.897 74.8737 204.21C75.0429 204.519 75.172 204.898 75.2609 205.346C75.3498 205.795 75.3942 206.322 75.3942 206.927ZM74.2135 208.526V206.73C74.2135 206.315 74.1881 205.951 74.1373 205.638C74.0908 205.321 74.021 205.05 73.9279 204.826C73.8348 204.601 73.7163 204.419 73.5724 204.28C73.4328 204.14 73.2698 204.039 73.0836 203.975C72.9017 203.907 72.6964 203.874 72.4679 203.874C72.1886 203.874 71.9411 203.926 71.7252 204.032C71.5094 204.134 71.3275 204.297 71.1793 204.521C71.0355 204.745 70.9254 205.039 70.8493 205.403C70.7731 205.767 70.735 206.209 70.735 206.73V208.526C70.735 208.941 70.7583 209.307 70.8048 209.625C70.8556 209.942 70.9297 210.217 71.027 210.45C71.1243 210.678 71.2428 210.867 71.3825 211.015C71.5221 211.163 71.6829 211.273 71.8649 211.345C72.0511 211.412 72.2563 211.446 72.4806 211.446C72.7684 211.446 73.0202 211.391 73.236 211.281C73.4518 211.171 73.6317 211 73.7755 210.767C73.9236 210.53 74.0337 210.228 74.1056 209.859C74.1775 209.487 74.2135 209.043 74.2135 208.526ZM82.7067 206.927V208.336C82.7067 209.093 82.639 209.732 82.5036 210.253C82.3681 210.773 82.1735 211.192 81.9196 211.51C81.6657 211.827 81.3589 212.058 80.9992 212.202C80.6437 212.341 80.2417 212.411 79.7931 212.411C79.4376 212.411 79.1097 212.367 78.8092 212.278C78.5088 212.189 78.2379 212.047 77.9967 211.853C77.7597 211.654 77.5566 211.396 77.3873 211.078C77.2181 210.761 77.089 210.376 77.0001 209.923C76.9113 209.47 76.8668 208.941 76.8668 208.336V206.927C76.8668 206.169 76.9345 205.535 77.07 205.022C77.2096 204.51 77.4064 204.1 77.6603 203.791C77.9142 203.478 78.2189 203.254 78.5744 203.118C78.9341 202.983 79.3361 202.915 79.7804 202.915C80.1401 202.915 80.4702 202.959 80.7706 203.048C81.0753 203.133 81.3462 203.271 81.5831 203.461C81.8201 203.647 82.0211 203.897 82.1862 204.21C82.3554 204.519 82.4845 204.898 82.5734 205.346C82.6623 205.795 82.7067 206.322 82.7067 206.927ZM81.526 208.526V206.73C81.526 206.315 81.5006 205.951 81.4498 205.638C81.4033 205.321 81.3335 205.05 81.2404 204.826C81.1473 204.601 81.0288 204.419 80.8849 204.28C80.7453 204.14 80.5823 204.039 80.3961 203.975C80.2142 203.907 80.0089 203.874 79.7804 203.874C79.5011 203.874 79.2536 203.926 79.0377 204.032C78.8219 204.134 78.64 204.297 78.4918 204.521C78.348 204.745 78.2379 205.039 78.1618 205.403C78.0856 205.767 78.0475 206.209 78.0475 206.73V208.526C78.0475 208.941 78.0708 209.307 78.1173 209.625C78.1681 209.942 78.2422 210.217 78.3395 210.45C78.4368 210.678 78.5553 210.867 78.695 211.015C78.8346 211.163 78.9954 211.273 79.1774 211.345C79.3636 211.412 79.5688 211.446 79.7931 211.446C80.0809 211.446 80.3327 211.391 80.5485 211.281C80.7643 211.171 80.9442 211 81.088 210.767C81.2361 210.53 81.3462 210.228 81.4181 209.859C81.49 209.487 81.526 209.043 81.526 208.526Z" fill="#718EBF"/>
<path d="M65.3092 262.368V263.333H59.2599V262.488L62.2877 259.118C62.6601 258.703 62.9479 258.352 63.151 258.064C63.3584 257.772 63.5023 257.512 63.5827 257.283C63.6673 257.05 63.7096 256.813 63.7096 256.572C63.7096 256.268 63.6461 255.993 63.5192 255.747C63.3965 255.497 63.2145 255.299 62.9733 255.15C62.7321 255.002 62.4401 254.928 62.0973 254.928C61.6868 254.928 61.3441 255.009 61.069 255.169C60.7982 255.326 60.595 255.546 60.4596 255.83C60.3242 256.113 60.2565 256.439 60.2565 256.807H59.0822C59.0822 256.287 59.1964 255.811 59.4249 255.379C59.6535 254.947 59.992 254.604 60.4406 254.351C60.8891 254.092 61.4414 253.963 62.0973 253.963C62.6813 253.963 63.1806 254.067 63.5954 254.274C64.0101 254.478 64.3275 254.765 64.5475 255.138C64.7718 255.506 64.8839 255.938 64.8839 256.433C64.8839 256.703 64.8374 256.979 64.7443 257.258C64.6554 257.533 64.5306 257.808 64.3698 258.083C64.2132 258.358 64.0291 258.629 63.8175 258.896C63.6102 259.162 63.388 259.424 63.151 259.683L60.6754 262.368H65.3092ZM72.3678 257.975V259.384C72.3678 260.142 72.3001 260.781 72.1647 261.301C72.0293 261.822 71.8346 262.241 71.5807 262.558C71.3268 262.875 71.02 263.106 70.6603 263.25C70.3048 263.39 69.9028 263.459 69.4542 263.459C69.0988 263.459 68.7708 263.415 68.4704 263.326C68.1699 263.237 67.8991 263.096 67.6579 262.901C67.4209 262.702 67.2178 262.444 67.0485 262.126C66.8792 261.809 66.7501 261.424 66.6613 260.971C66.5724 260.518 66.528 259.989 66.528 259.384V257.975C66.528 257.218 66.5957 256.583 66.7311 256.071C66.8707 255.559 67.0675 255.148 67.3214 254.839C67.5753 254.526 67.88 254.302 68.2355 254.167C68.5952 254.031 68.9972 253.963 69.4415 253.963C69.8012 253.963 70.1313 254.008 70.4318 254.097C70.7365 254.181 71.0073 254.319 71.2443 254.509C71.4813 254.695 71.6823 254.945 71.8473 255.258C72.0166 255.567 72.1456 255.946 72.2345 256.395C72.3234 256.843 72.3678 257.37 72.3678 257.975ZM71.1872 259.575V257.778C71.1872 257.364 71.1618 257 71.111 256.687C71.0644 256.369 70.9946 256.098 70.9015 255.874C70.8084 255.65 70.6899 255.468 70.546 255.328C70.4064 255.188 70.2435 255.087 70.0573 255.023C69.8753 254.956 69.6701 254.922 69.4415 254.922C69.1623 254.922 68.9147 254.975 68.6989 255.081C68.4831 255.182 68.3011 255.345 68.153 255.569C68.0091 255.794 67.8991 256.088 67.8229 256.452C67.7467 256.816 67.7086 257.258 67.7086 257.778V259.575C67.7086 259.989 67.7319 260.355 67.7785 260.673C67.8292 260.99 67.9033 261.265 68.0006 261.498C68.098 261.727 68.2164 261.915 68.3561 262.063C68.4957 262.211 68.6566 262.321 68.8385 262.393C69.0247 262.461 69.23 262.495 69.4542 262.495C69.742 262.495 69.9938 262.44 70.2096 262.33C70.4254 262.22 70.6053 262.048 70.7492 261.815C70.8973 261.578 71.0073 261.276 71.0792 260.908C71.1512 260.535 71.1872 260.091 71.1872 259.575ZM79.6803 257.975V259.384C79.6803 260.142 79.6126 260.781 79.4772 261.301C79.3418 261.822 79.1471 262.241 78.8932 262.558C78.6393 262.875 78.3325 263.106 77.9728 263.25C77.6173 263.39 77.2153 263.459 76.7667 263.459C76.4113 263.459 76.0833 263.415 75.7829 263.326C75.4824 263.237 75.2116 263.096 74.9704 262.901C74.7334 262.702 74.5303 262.444 74.361 262.126C74.1917 261.809 74.0626 261.424 73.9738 260.971C73.8849 260.518 73.8405 259.989 73.8405 259.384V257.975C73.8405 257.218 73.9082 256.583 74.0436 256.071C74.1832 255.559 74.38 255.148 74.6339 254.839C74.8878 254.526 75.1925 254.302 75.548 254.167C75.9077 254.031 76.3097 253.963 76.754 253.963C77.1137 253.963 77.4438 254.008 77.7443 254.097C78.049 254.181 78.3198 254.319 78.5568 254.509C78.7938 254.695 78.9948 254.945 79.1598 255.258C79.3291 255.567 79.4581 255.946 79.547 256.395C79.6359 256.843 79.6803 257.37 79.6803 257.975ZM78.4997 259.575V257.778C78.4997 257.364 78.4743 257 78.4235 256.687C78.3769 256.369 78.3071 256.098 78.214 255.874C78.1209 255.65 78.0024 255.468 77.8585 255.328C77.7189 255.188 77.556 255.087 77.3698 255.023C77.1878 254.956 76.9826 254.922 76.754 254.922C76.4748 254.922 76.2272 254.975 76.0114 255.081C75.7956 255.182 75.6136 255.345 75.4655 255.569C75.3216 255.794 75.2116 256.088 75.1354 256.452C75.0592 256.816 75.0211 257.258 75.0211 257.778V259.575C75.0211 259.989 75.0444 260.355 75.091 260.673C75.1417 260.99 75.2158 261.265 75.3131 261.498C75.4105 261.727 75.5289 261.915 75.6686 262.063C75.8082 262.211 75.9691 262.321 76.151 262.393C76.3372 262.461 76.5425 262.495 76.7667 262.495C77.0545 262.495 77.3063 262.44 77.5221 262.33C77.7379 262.22 77.9178 262.048 78.0617 261.815C78.2098 261.578 78.3198 261.276 78.3917 260.908C78.4637 260.535 78.4997 260.091 78.4997 259.575Z" fill="#718EBF"/>
<path d="M58.3738 305.961V315.254H57.1995V307.427L54.8318 308.29V307.23L58.1897 305.961H58.3738ZM67.6287 309.896V311.305C67.6287 312.063 67.561 312.702 67.4255 313.222C67.2901 313.743 67.0955 314.162 66.8416 314.479C66.5877 314.797 66.2809 315.027 65.9212 315.171C65.5657 315.311 65.1637 315.381 64.7151 315.381C64.3596 315.381 64.0317 315.336 63.7312 315.247C63.4308 315.158 63.1599 315.017 62.9187 314.822C62.6817 314.623 62.4786 314.365 62.3093 314.048C62.1401 313.73 62.011 313.345 61.9221 312.892C61.8333 312.44 61.7888 311.911 61.7888 311.305V309.896C61.7888 309.139 61.8565 308.504 61.992 307.992C62.1316 307.48 62.3284 307.069 62.5823 306.76C62.8362 306.447 63.1409 306.223 63.4963 306.088C63.856 305.952 64.2581 305.885 64.7024 305.885C65.0621 305.885 65.3922 305.929 65.6926 306.018C65.9973 306.102 66.2682 306.24 66.5051 306.43C66.7421 306.617 66.9431 306.866 67.1082 307.179C67.2774 307.488 67.4065 307.867 67.4954 308.316C67.5842 308.764 67.6287 309.291 67.6287 309.896ZM66.448 311.496V309.699C66.448 309.285 66.4226 308.921 66.3718 308.608C66.3253 308.29 66.2555 308.019 66.1624 307.795C66.0693 307.571 65.9508 307.389 65.8069 307.249C65.6672 307.11 65.5043 307.008 65.3181 306.945C65.1362 306.877 64.9309 306.843 64.7024 306.843C64.4231 306.843 64.1755 306.896 63.9597 307.002C63.7439 307.103 63.5619 307.266 63.4138 307.49C63.2699 307.715 63.1599 308.009 63.0837 308.373C63.0076 308.737 62.9695 309.179 62.9695 309.699V311.496C62.9695 311.911 62.9928 312.277 63.0393 312.594C63.0901 312.911 63.1642 313.186 63.2615 313.419C63.3588 313.648 63.4773 313.836 63.617 313.984C63.7566 314.132 63.9174 314.242 64.0994 314.314C64.2856 314.382 64.4908 314.416 64.7151 314.416C65.0029 314.416 65.2546 314.361 65.4705 314.251C65.6863 314.141 65.8661 313.969 66.01 313.737C66.1581 313.5 66.2682 313.197 66.3401 312.829C66.412 312.456 66.448 312.012 66.448 311.496ZM74.9412 309.896V311.305C74.9412 312.063 74.8735 312.702 74.738 313.222C74.6026 313.743 74.408 314.162 74.1541 314.479C73.9002 314.797 73.5934 315.027 73.2337 315.171C72.8782 315.311 72.4762 315.381 72.0276 315.381C71.6721 315.381 71.3442 315.336 71.0437 315.247C70.7433 315.158 70.4724 315.017 70.2312 314.822C69.9942 314.623 69.7911 314.365 69.6218 314.048C69.4526 313.73 69.3235 313.345 69.2346 312.892C69.1458 312.44 69.1013 311.911 69.1013 311.305V309.896C69.1013 309.139 69.169 308.504 69.3045 307.992C69.4441 307.48 69.6409 307.069 69.8948 306.76C70.1487 306.447 70.4534 306.223 70.8088 306.088C71.1685 305.952 71.5706 305.885 72.0149 305.885C72.3746 305.885 72.7047 305.929 73.0051 306.018C73.3098 306.102 73.5807 306.24 73.8176 306.43C74.0546 306.617 74.2556 306.866 74.4207 307.179C74.5899 307.488 74.719 307.867 74.8079 308.316C74.8967 308.764 74.9412 309.291 74.9412 309.896ZM73.7605 311.496V309.699C73.7605 309.285 73.7351 308.921 73.6843 308.608C73.6378 308.29 73.568 308.019 73.4749 307.795C73.3818 307.571 73.2633 307.389 73.1194 307.249C72.9797 307.11 72.8168 307.008 72.6306 306.945C72.4487 306.877 72.2434 306.843 72.0149 306.843C71.7356 306.843 71.488 306.896 71.2722 307.002C71.0564 307.103 70.8744 307.266 70.7263 307.49C70.5824 307.715 70.4724 308.009 70.3962 308.373C70.3201 308.737 70.282 309.179 70.282 309.699V311.496C70.282 311.911 70.3053 312.277 70.3518 312.594C70.4026 312.911 70.4767 313.186 70.574 313.419C70.6713 313.648 70.7898 313.836 70.9295 313.984C71.0691 314.132 71.2299 314.242 71.4119 314.314C71.5981 314.382 71.8033 314.416 72.0276 314.416C72.3154 314.416 72.5671 314.361 72.783 314.251C72.9988 314.141 73.1786 313.969 73.3225 313.737C73.4706 313.5 73.5807 313.197 73.6526 312.829C73.7245 312.456 73.7605 312.012 73.7605 311.496Z" fill="#718EBF"/>
<path d="M74.9414 361.817V363.226C74.9414 363.984 74.8737 364.623 74.7383 365.143C74.6029 365.664 74.4082 366.083 74.1543 366.4C73.9004 366.717 73.5936 366.948 73.2339 367.092C72.8784 367.231 72.4764 367.301 72.0278 367.301C71.6724 367.301 71.3444 367.257 71.044 367.168C70.7435 367.079 70.4727 366.937 70.2315 366.743C69.9945 366.544 69.7914 366.286 69.6221 365.968C69.4528 365.651 69.3237 365.266 69.2349 364.813C69.146 364.36 69.1016 363.831 69.1016 363.226V361.817C69.1016 361.059 69.1693 360.425 69.3047 359.913C69.4443 359.401 69.6411 358.99 69.895 358.681C70.1489 358.368 70.4536 358.144 70.8091 358.008C71.1688 357.873 71.5708 357.805 72.0152 357.805C72.3749 357.805 72.7049 357.85 73.0054 357.938C73.3101 358.023 73.5809 358.161 73.8179 358.351C74.0549 358.537 74.2559 358.787 74.4209 359.1C74.5902 359.409 74.7193 359.788 74.8081 360.236C74.897 360.685 74.9414 361.212 74.9414 361.817ZM73.7608 363.417V361.62C73.7608 361.205 73.7354 360.841 73.6846 360.528C73.638 360.211 73.5682 359.94 73.4751 359.716C73.382 359.492 73.2635 359.31 73.1196 359.17C72.98 359.03 72.8171 358.929 72.6309 358.865C72.4489 358.798 72.2437 358.764 72.0152 358.764C71.7359 358.764 71.4883 358.817 71.2725 358.922C71.0567 359.024 70.8747 359.187 70.7266 359.411C70.5827 359.635 70.4727 359.93 70.3965 360.293C70.3203 360.657 70.2822 361.1 70.2822 361.62V363.417C70.2822 363.831 70.3055 364.197 70.3521 364.515C70.4028 364.832 70.4769 365.107 70.5742 365.34C70.6716 365.568 70.7901 365.757 70.9297 365.905C71.0693 366.053 71.2302 366.163 71.4121 366.235C71.5983 366.303 71.8036 366.336 72.0278 366.336C72.3156 366.336 72.5674 366.281 72.7832 366.171C72.999 366.061 73.1789 365.89 73.3228 365.657C73.4709 365.42 73.5809 365.118 73.6528 364.75C73.7248 364.377 73.7608 363.933 73.7608 363.417Z" fill="#718EBF"/>
<rect x="131.907" y="116.618" width="21.049" height="249.782" rx="10.5245" fill="#17476D"/>
<rect x="169.796" y="238.703" width="21.049" height="127.698" rx="10.5245" fill="#60B8D6"/>
<rect x="258.202" y="183.976" width="21.049" height="182.425" rx="10.5245" fill="#17476D"/>
<rect x="296.09" y="297.64" width="21.049" height="68.7602" rx="10.5245" fill="#60B8D6"/>
<rect x="384.496" y="195.202" width="21.049" height="171.199" rx="10.5245" fill="#17476D"/>
<rect x="422.384" y="228.88" width="21.049" height="137.52" rx="10.5245" fill="#60B8D6"/>
<rect x="510.79" y="116.618" width="21.049" height="249.782" rx="10.5245" fill="#17476D"/>
<rect x="548.678" y="172.749" width="21.049" height="193.651" rx="10.5245" fill="#60B8D6"/>
<rect x="637.084" y="286.414" width="21.049" height="79.9864" rx="10.5245" fill="#17476D"/>
<rect x="674.973" y="238.703" width="21.049" height="127.698" rx="10.5245" fill="#60B8D6"/>
<rect x="763.379" y="162.927" width="21.049" height="203.474" rx="10.5245" fill="#17476D"/>
<rect x="801.267" y="238.703" width="21.049" height="127.698" rx="10.5245" fill="#60B8D6"/>
<rect x="889.673" y="160.12" width="21.049" height="206.281" rx="10.5245" fill="#17476D"/>
<rect x="927.561" y="189.588" width="21.049" height="176.812" rx="10.5245" fill="#60B8D6"/>
<circle cx="618.869" cy="55.105" r="12.105" fill="#17476D"/>
<path d="M647.178 46.3359V57H645.787V46.3359H647.178ZM650.606 46.3359V47.4932H642.366V46.3359H650.606ZM650.892 53.1255V52.957C650.892 52.3857 650.975 51.856 651.141 51.3677C651.307 50.8745 651.546 50.4473 651.858 50.0859C652.171 49.7197 652.549 49.4365 652.994 49.2363C653.438 49.0312 653.936 48.9287 654.488 48.9287C655.044 48.9287 655.545 49.0312 655.989 49.2363C656.438 49.4365 656.819 49.7197 657.132 50.0859C657.449 50.4473 657.691 50.8745 657.857 51.3677C658.023 51.856 658.106 52.3857 658.106 52.957V53.1255C658.106 53.6968 658.023 54.2266 657.857 54.7148C657.691 55.2031 657.449 55.6304 657.132 55.9966C656.819 56.3579 656.441 56.6411 655.997 56.8462C655.557 57.0464 655.059 57.1465 654.502 57.1465C653.946 57.1465 653.445 57.0464 653.001 56.8462C652.557 56.6411 652.176 56.3579 651.858 55.9966C651.546 55.6304 651.307 55.2031 651.141 54.7148C650.975 54.2266 650.892 53.6968 650.892 53.1255ZM652.247 52.957V53.1255C652.247 53.521 652.293 53.8945 652.386 54.2461C652.479 54.5928 652.618 54.9004 652.803 55.1689C652.994 55.4375 653.23 55.6499 653.514 55.8062C653.797 55.9575 654.126 56.0332 654.502 56.0332C654.874 56.0332 655.198 55.9575 655.477 55.8062C655.76 55.6499 655.994 55.4375 656.18 55.1689C656.365 54.9004 656.504 54.5928 656.597 54.2461C656.695 53.8945 656.744 53.521 656.744 53.1255V52.957C656.744 52.5664 656.695 52.1978 656.597 51.8511C656.504 51.4995 656.363 51.1895 656.172 50.9209C655.987 50.6475 655.752 50.4326 655.469 50.2764C655.191 50.1201 654.864 50.042 654.488 50.042C654.117 50.042 653.79 50.1201 653.506 50.2764C653.228 50.4326 652.994 50.6475 652.803 50.9209C652.618 51.1895 652.479 51.4995 652.386 51.8511C652.293 52.1978 652.247 52.5664 652.247 52.957ZM655.103 46.1016L657.11 48.0278H655.857L654.415 46.6655L652.979 48.0278H651.734L653.726 46.1016H655.103ZM657.337 47.0171H656.495L656.487 46.0503C656.702 46.0356 656.875 46.0137 657.007 45.9844C657.139 45.9551 657.237 45.9111 657.3 45.8525C657.364 45.7891 657.396 45.7036 657.396 45.5962C657.396 45.4741 657.349 45.3789 657.256 45.3105C657.164 45.2373 657.039 45.186 656.883 45.1567C656.727 45.1226 656.553 45.1055 656.363 45.1055L656.407 44.4243C656.719 44.4243 656.993 44.4536 657.227 44.5122C657.466 44.5659 657.667 44.6465 657.828 44.7539C657.994 44.8564 658.118 44.981 658.201 45.1274C658.284 45.269 658.326 45.4302 658.326 45.6108C658.326 45.9282 658.223 46.1602 658.018 46.3066C657.818 46.4482 657.593 46.5361 657.344 46.5703L657.337 47.0171ZM661.16 50.7671V57H659.805V49.0752H661.087L661.16 50.7671ZM660.838 52.7373L660.274 52.7153C660.279 52.1733 660.359 51.6729 660.516 51.2139C660.672 50.75 660.892 50.3472 661.175 50.0054C661.458 49.6636 661.795 49.3999 662.186 49.2144C662.581 49.0239 663.018 48.9287 663.497 48.9287C663.887 48.9287 664.239 48.9824 664.551 49.0898C664.864 49.1924 665.13 49.3584 665.35 49.5879C665.574 49.8174 665.745 50.1152 665.862 50.4814C665.979 50.8428 666.038 51.2847 666.038 51.8071V57H664.676V51.7925C664.676 51.3774 664.615 51.0454 664.493 50.7964C664.371 50.5425 664.192 50.3594 663.958 50.2471C663.724 50.1299 663.436 50.0713 663.094 50.0713C662.757 50.0713 662.449 50.1421 662.171 50.2837C661.897 50.4253 661.661 50.6206 661.46 50.8696C661.265 51.1187 661.111 51.4043 660.999 51.7266C660.892 52.0439 660.838 52.3809 660.838 52.7373ZM673.23 49.0752H674.461V56.8315C674.461 57.5298 674.319 58.1255 674.036 58.6187C673.753 59.1118 673.357 59.4854 672.85 59.7393C672.347 59.998 671.766 60.1274 671.106 60.1274C670.833 60.1274 670.511 60.0835 670.14 59.9956C669.773 59.9126 669.412 59.7686 669.056 59.5635C668.704 59.3633 668.409 59.0923 668.169 58.7505L668.88 57.9448C669.212 58.3452 669.559 58.6235 669.92 58.7798C670.286 58.936 670.647 59.0142 671.004 59.0142C671.434 59.0142 671.805 58.9336 672.117 58.7725C672.43 58.6113 672.671 58.3721 672.842 58.0547C673.018 57.7422 673.106 57.3564 673.106 56.8975V50.8184L673.23 49.0752ZM667.774 53.1255V52.9717C667.774 52.3662 667.845 51.8169 667.986 51.3237C668.133 50.8257 668.34 50.3984 668.609 50.042C668.882 49.6855 669.212 49.4121 669.598 49.2217C669.983 49.0264 670.418 48.9287 670.901 48.9287C671.399 48.9287 671.834 49.0166 672.205 49.1924C672.581 49.3633 672.898 49.6147 673.157 49.9468C673.421 50.2739 673.628 50.6694 673.78 51.1333C673.931 51.5972 674.036 52.1221 674.095 52.708V53.3818C674.041 53.9629 673.936 54.4854 673.78 54.9492C673.628 55.4131 673.421 55.8086 673.157 56.1357C672.898 56.4629 672.581 56.7144 672.205 56.8901C671.829 57.061 671.39 57.1465 670.887 57.1465C670.413 57.1465 669.983 57.0464 669.598 56.8462C669.217 56.646 668.89 56.3652 668.616 56.0039C668.343 55.6426 668.133 55.2178 667.986 54.7295C667.845 54.2363 667.774 53.7017 667.774 53.1255ZM669.129 52.9717V53.1255C669.129 53.521 669.168 53.8921 669.246 54.2388C669.329 54.5854 669.454 54.8906 669.62 55.1543C669.791 55.418 670.008 55.6255 670.271 55.7769C670.535 55.9233 670.85 55.9966 671.216 55.9966C671.666 55.9966 672.037 55.9014 672.33 55.7109C672.623 55.5205 672.854 55.269 673.025 54.9565C673.201 54.644 673.338 54.3047 673.436 53.9385V52.1733C673.382 51.9048 673.299 51.646 673.187 51.397C673.079 51.1431 672.938 50.9185 672.762 50.7231C672.591 50.5229 672.378 50.3643 672.125 50.2471C671.871 50.1299 671.573 50.0713 671.231 50.0713C670.86 50.0713 670.54 50.1494 670.271 50.3057C670.008 50.457 669.791 50.667 669.62 50.9355C669.454 51.1992 669.329 51.5068 669.246 51.8584C669.168 52.2051 669.129 52.5762 669.129 52.9717ZM681.712 45.75V57H680.35V45.75H681.712ZM685.359 49.0752V57H683.997V49.0752H685.359ZM683.895 46.9731C683.895 46.7534 683.96 46.5679 684.092 46.4165C684.229 46.2651 684.429 46.1895 684.693 46.1895C684.952 46.1895 685.149 46.2651 685.286 46.4165C685.428 46.5679 685.499 46.7534 685.499 46.9731C685.499 47.1831 685.428 47.3638 685.286 47.5151C685.149 47.6616 684.952 47.7349 684.693 47.7349C684.429 47.7349 684.229 47.6616 684.092 47.5151C683.96 47.3638 683.895 47.1831 683.895 46.9731ZM683.836 58.7285C683.836 58.5088 683.902 58.3232 684.034 58.1719C684.17 58.0205 684.371 57.9448 684.634 57.9448C684.893 57.9448 685.091 58.0205 685.228 58.1719C685.369 58.3232 685.44 58.5088 685.44 58.7285C685.44 58.9385 685.369 59.1167 685.228 59.2632C685.091 59.4146 684.893 59.4902 684.634 59.4902C684.371 59.4902 684.17 59.4146 684.034 59.2632C683.902 59.1167 683.836 58.9385 683.836 58.7285ZM690.706 56.0332C691.028 56.0332 691.326 55.9673 691.6 55.8354C691.873 55.7036 692.098 55.5229 692.273 55.2935C692.449 55.0591 692.549 54.793 692.574 54.4951H693.863C693.838 54.9639 693.68 55.4009 693.387 55.8062C693.099 56.2065 692.72 56.5312 692.251 56.7803C691.783 57.0244 691.268 57.1465 690.706 57.1465C690.11 57.1465 689.59 57.0415 689.146 56.8315C688.707 56.6216 688.34 56.3335 688.047 55.9673C687.759 55.6011 687.542 55.1812 687.396 54.7075C687.254 54.229 687.183 53.7236 687.183 53.1914V52.8838C687.183 52.3516 687.254 51.8486 687.396 51.375C687.542 50.8965 687.759 50.4741 688.047 50.1079C688.34 49.7417 688.707 49.4536 689.146 49.2437C689.59 49.0337 690.11 48.9287 690.706 48.9287C691.326 48.9287 691.868 49.0557 692.332 49.3096C692.796 49.5586 693.16 49.9004 693.423 50.335C693.692 50.7646 693.838 51.2529 693.863 51.7998H692.574C692.549 51.4727 692.457 51.1772 692.295 50.9136C692.139 50.6499 691.924 50.4399 691.651 50.2837C691.382 50.1226 691.067 50.042 690.706 50.042C690.291 50.042 689.942 50.125 689.659 50.291C689.38 50.4521 689.158 50.6719 688.992 50.9502C688.831 51.2236 688.714 51.5288 688.641 51.8657C688.572 52.1978 688.538 52.5371 688.538 52.8838V53.1914C688.538 53.5381 688.572 53.8799 688.641 54.2168C688.709 54.5537 688.824 54.8589 688.985 55.1323C689.151 55.4058 689.373 55.6255 689.651 55.7915C689.935 55.9526 690.286 56.0332 690.706 56.0332ZM696.741 45.75V57H695.386V45.75H696.741ZM696.419 52.7373L695.855 52.7153C695.86 52.1733 695.94 51.6729 696.097 51.2139C696.253 50.75 696.473 50.3472 696.756 50.0054C697.039 49.6636 697.376 49.3999 697.767 49.2144C698.162 49.0239 698.599 48.9287 699.078 48.9287C699.468 48.9287 699.82 48.9824 700.132 49.0898C700.445 49.1924 700.711 49.3584 700.931 49.5879C701.155 49.8174 701.326 50.1152 701.443 50.4814C701.561 50.8428 701.619 51.2847 701.619 51.8071V57H700.257V51.7925C700.257 51.3774 700.196 51.0454 700.074 50.7964C699.952 50.5425 699.773 50.3594 699.539 50.2471C699.305 50.1299 699.017 50.0713 698.675 50.0713C698.338 50.0713 698.03 50.1421 697.752 50.2837C697.479 50.4253 697.242 50.6206 697.042 50.8696C696.846 51.1187 696.692 51.4043 696.58 51.7266C696.473 52.0439 696.419 52.3809 696.419 52.7373ZM712.364 55.4619V45.75H713.726V57H712.481L712.364 55.4619ZM707.032 53.1255V52.9717C707.032 52.3662 707.105 51.8169 707.251 51.3237C707.403 50.8257 707.615 50.3984 707.889 50.042C708.167 49.6855 708.497 49.4121 708.877 49.2217C709.263 49.0264 709.693 48.9287 710.167 48.9287C710.665 48.9287 711.099 49.0166 711.47 49.1924C711.846 49.3633 712.164 49.6147 712.422 49.9468C712.686 50.2739 712.894 50.6694 713.045 51.1333C713.196 51.5972 713.301 52.1221 713.36 52.708V53.3818C713.306 53.9629 713.201 54.4854 713.045 54.9492C712.894 55.4131 712.686 55.8086 712.422 56.1357C712.164 56.4629 711.846 56.7144 711.47 56.8901C711.094 57.061 710.655 57.1465 710.152 57.1465C709.688 57.1465 709.263 57.0464 708.877 56.8462C708.497 56.646 708.167 56.3652 707.889 56.0039C707.615 55.6426 707.403 55.2178 707.251 54.7295C707.105 54.2363 707.032 53.7017 707.032 53.1255ZM708.394 52.9717V53.1255C708.394 53.521 708.433 53.8921 708.511 54.2388C708.594 54.5854 708.721 54.8906 708.892 55.1543C709.063 55.418 709.28 55.6255 709.544 55.7769C709.808 55.9233 710.123 55.9966 710.489 55.9966C710.938 55.9966 711.307 55.9014 711.595 55.7109C711.888 55.5205 712.122 55.269 712.298 54.9565C712.474 54.644 712.61 54.3047 712.708 53.9385V52.1733C712.649 51.9048 712.564 51.646 712.452 51.397C712.344 51.1431 712.203 50.9185 712.027 50.7231C711.856 50.5229 711.644 50.3643 711.39 50.2471C711.141 50.1299 710.845 50.0713 710.503 50.0713C710.132 50.0713 709.812 50.1494 709.544 50.3057C709.28 50.457 709.063 50.667 708.892 50.9355C708.721 51.1992 708.594 51.5068 708.511 51.8584C708.433 52.2051 708.394 52.5762 708.394 52.9717ZM715.103 46.856V47.9692H710.438V46.856H715.103ZM721.006 55.645V51.5654C721.006 51.2529 720.943 50.9819 720.816 50.7524C720.694 50.5181 720.508 50.3374 720.259 50.2104C720.01 50.0835 719.703 50.02 719.336 50.02C718.995 50.02 718.694 50.0786 718.436 50.1958C718.182 50.313 717.981 50.4668 717.835 50.6572C717.693 50.8477 717.623 51.0527 717.623 51.2725H716.268C716.268 50.9893 716.341 50.7085 716.487 50.4302C716.634 50.1519 716.844 49.9004 717.117 49.6758C717.396 49.4463 717.728 49.2656 718.113 49.1338C718.504 48.9971 718.938 48.9287 719.417 48.9287C719.993 48.9287 720.501 49.0264 720.94 49.2217C721.385 49.417 721.731 49.7124 721.98 50.1079C722.234 50.4985 722.361 50.9893 722.361 51.5801V55.2715C722.361 55.5352 722.383 55.8159 722.427 56.1138C722.476 56.4116 722.547 56.668 722.64 56.8828V57H721.226C721.158 56.8438 721.104 56.6362 721.065 56.3774C721.026 56.1138 721.006 55.8696 721.006 55.645ZM721.241 52.1953L721.255 53.1475H719.886C719.5 53.1475 719.156 53.1792 718.853 53.2427C718.55 53.3013 718.296 53.3916 718.091 53.5137C717.886 53.6357 717.73 53.7896 717.623 53.9751C717.515 54.1558 717.461 54.3682 717.461 54.6123C717.461 54.8613 717.518 55.0884 717.63 55.2935C717.742 55.4985 717.911 55.6621 718.135 55.7842C718.365 55.9014 718.646 55.96 718.978 55.96C719.393 55.96 719.759 55.8721 720.076 55.6963C720.394 55.5205 720.645 55.3057 720.831 55.0518C721.021 54.7979 721.124 54.5513 721.138 54.312L721.717 54.9639C721.683 55.1689 721.59 55.396 721.438 55.645C721.287 55.894 721.084 56.1333 720.831 56.3628C720.582 56.5874 720.284 56.7754 719.937 56.9268C719.595 57.0732 719.209 57.1465 718.78 57.1465C718.243 57.1465 717.771 57.0415 717.366 56.8315C716.966 56.6216 716.653 56.3408 716.429 55.9893C716.209 55.6328 716.099 55.2349 716.099 54.7954C716.099 54.3706 716.182 53.9971 716.348 53.6748C716.514 53.3477 716.753 53.0767 717.066 52.8618C717.378 52.6421 717.754 52.4761 718.194 52.3638C718.633 52.2515 719.124 52.1953 719.666 52.1953H721.241ZM720.655 46.0503H721.753C721.753 46.4312 721.666 46.7705 721.49 47.0684C721.314 47.3613 721.062 47.5908 720.735 47.7568C720.408 47.9229 720.02 48.0059 719.571 48.0059C718.892 48.0059 718.355 47.8252 717.959 47.4639C717.569 47.0977 717.374 46.6265 717.374 46.0503H718.472C718.472 46.3384 718.555 46.5923 718.721 46.812C718.887 47.0317 719.17 47.1416 719.571 47.1416C719.961 47.1416 720.24 47.0317 720.406 46.812C720.572 46.5923 720.655 46.3384 720.655 46.0503ZM718.135 58.8018C718.135 58.582 718.201 58.3965 718.333 58.2451C718.47 58.0938 718.67 58.0181 718.934 58.0181C719.192 58.0181 719.39 58.0938 719.527 58.2451C719.668 58.3965 719.739 58.582 719.739 58.8018C719.739 59.0117 719.668 59.1899 719.527 59.3364C719.39 59.4878 719.192 59.5635 718.934 59.5635C718.67 59.5635 718.47 59.4878 718.333 59.3364C718.201 59.1899 718.135 59.0117 718.135 58.8018ZM727.811 49.0752V50.1152H723.526V49.0752H727.811ZM724.976 47.1489H726.331V55.0371C726.331 55.3057 726.373 55.5083 726.456 55.645C726.539 55.7817 726.646 55.8721 726.778 55.916C726.91 55.96 727.051 55.9819 727.203 55.9819C727.315 55.9819 727.432 55.9722 727.554 55.9526C727.681 55.9282 727.776 55.9087 727.84 55.894L727.847 57C727.74 57.0342 727.598 57.0659 727.422 57.0952C727.251 57.1294 727.044 57.1465 726.8 57.1465C726.468 57.1465 726.163 57.0806 725.884 56.9487C725.606 56.8169 725.384 56.5972 725.218 56.2896C725.057 55.9771 724.976 55.5571 724.976 55.0298V47.1489Z" fill="#718EBF"/>
<circle cx="839.105" cy="53.105" r="12.105" fill="#60B8D6"/>
<path d="M874.083 46.5293V57.1934H872.691V46.5293H874.083ZM877.511 46.5293V47.6865H869.271V46.5293H877.511ZM880.243 45.9434V57.1934H878.888V45.9434H880.243ZM879.92 52.9307L879.356 52.9087C879.361 52.3667 879.442 51.8662 879.598 51.4072C879.754 50.9434 879.974 50.5405 880.257 50.1987C880.541 49.8569 880.877 49.5933 881.268 49.4077C881.664 49.2173 882.101 49.1221 882.579 49.1221C882.97 49.1221 883.321 49.1758 883.634 49.2832C883.946 49.3857 884.212 49.5518 884.432 49.7812C884.657 50.0107 884.828 50.3086 884.945 50.6748C885.062 51.0361 885.121 51.478 885.121 52.0005V57.1934H883.758V51.9858C883.758 51.5708 883.697 51.2388 883.575 50.9897C883.453 50.7358 883.275 50.5527 883.041 50.4404C882.806 50.3232 882.518 50.2646 882.176 50.2646C881.839 50.2646 881.532 50.3354 881.253 50.4771C880.98 50.6187 880.743 50.814 880.543 51.063C880.348 51.312 880.194 51.5977 880.082 51.9199C879.974 52.2373 879.92 52.5742 879.92 52.9307ZM891.822 55.8384V51.7588C891.822 51.4463 891.759 51.1753 891.632 50.9458C891.51 50.7114 891.324 50.5308 891.075 50.4038C890.826 50.2769 890.519 50.2134 890.152 50.2134C889.811 50.2134 889.51 50.272 889.251 50.3892C888.998 50.5063 888.797 50.6602 888.651 50.8506C888.509 51.041 888.438 51.2461 888.438 51.4658H887.083C887.083 51.1826 887.157 50.9019 887.303 50.6235C887.45 50.3452 887.66 50.0938 887.933 49.8691C888.211 49.6396 888.543 49.459 888.929 49.3271C889.32 49.1904 889.754 49.1221 890.233 49.1221C890.809 49.1221 891.317 49.2197 891.756 49.415C892.201 49.6104 892.547 49.9058 892.796 50.3013C893.05 50.6919 893.177 51.1826 893.177 51.7734V55.4648C893.177 55.7285 893.199 56.0093 893.243 56.3071C893.292 56.605 893.363 56.8613 893.456 57.0762V57.1934H892.042C891.974 57.0371 891.92 56.8296 891.881 56.5708C891.842 56.3071 891.822 56.063 891.822 55.8384ZM892.057 52.3887L892.071 53.3408H890.702C890.316 53.3408 889.972 53.3726 889.669 53.436C889.366 53.4946 889.112 53.585 888.907 53.707C888.702 53.8291 888.546 53.9829 888.438 54.1685C888.331 54.3491 888.277 54.5615 888.277 54.8057C888.277 55.0547 888.333 55.2817 888.446 55.4868C888.558 55.6919 888.727 55.8555 888.951 55.9775C889.181 56.0947 889.461 56.1533 889.793 56.1533C890.208 56.1533 890.575 56.0654 890.892 55.8896C891.209 55.7139 891.461 55.499 891.646 55.2451C891.837 54.9912 891.939 54.7446 891.954 54.5054L892.533 55.1572C892.499 55.3623 892.406 55.5894 892.254 55.8384C892.103 56.0874 891.9 56.3267 891.646 56.5562C891.397 56.7808 891.1 56.9688 890.753 57.1201C890.411 57.2666 890.025 57.3398 889.596 57.3398C889.059 57.3398 888.587 57.2349 888.182 57.0249C887.782 56.8149 887.469 56.5342 887.245 56.1826C887.025 55.8262 886.915 55.4282 886.915 54.9888C886.915 54.564 886.998 54.1904 887.164 53.8682C887.33 53.541 887.569 53.27 887.882 53.0552C888.194 52.8354 888.57 52.6694 889.01 52.5571C889.449 52.4448 889.94 52.3887 890.482 52.3887H892.057ZM889.735 45.9434L891.148 48.0967H889.984L888.094 45.9434H889.735ZM896.664 50.9604V57.1934H895.309V49.2686H896.59L896.664 50.9604ZM896.341 52.9307L895.777 52.9087C895.782 52.3667 895.863 51.8662 896.019 51.4072C896.175 50.9434 896.395 50.5405 896.678 50.1987C896.961 49.8569 897.298 49.5933 897.689 49.4077C898.084 49.2173 898.521 49.1221 899 49.1221C899.391 49.1221 899.742 49.1758 900.055 49.2832C900.367 49.3857 900.633 49.5518 900.853 49.7812C901.078 50.0107 901.249 50.3086 901.366 50.6748C901.483 51.0361 901.542 51.478 901.542 52.0005V57.1934H900.179V51.9858C900.179 51.5708 900.118 51.2388 899.996 50.9897C899.874 50.7358 899.696 50.5527 899.461 50.4404C899.227 50.3232 898.939 50.2646 898.597 50.2646C898.26 50.2646 897.953 50.3354 897.674 50.4771C897.401 50.6187 897.164 50.814 896.964 51.063C896.769 51.312 896.615 51.5977 896.502 51.9199C896.395 52.2373 896.341 52.5742 896.341 52.9307ZM904.955 45.9434V57.1934H903.6V45.9434H904.955ZM904.632 52.9307L904.068 52.9087C904.073 52.3667 904.154 51.8662 904.31 51.4072C904.466 50.9434 904.686 50.5405 904.969 50.1987C905.252 49.8569 905.589 49.5933 905.98 49.4077C906.375 49.2173 906.812 49.1221 907.291 49.1221C907.682 49.1221 908.033 49.1758 908.346 49.2832C908.658 49.3857 908.924 49.5518 909.144 49.7812C909.369 50.0107 909.54 50.3086 909.657 50.6748C909.774 51.0361 909.833 51.478 909.833 52.0005V57.1934H908.47V51.9858C908.47 51.5708 908.409 51.2388 908.287 50.9897C908.165 50.7358 907.987 50.5527 907.752 50.4404C907.518 50.3232 907.23 50.2646 906.888 50.2646C906.551 50.2646 906.244 50.3354 905.965 50.4771C905.692 50.6187 905.455 50.814 905.255 51.063C905.06 51.312 904.906 51.5977 904.793 51.9199C904.686 52.2373 904.632 52.5742 904.632 52.9307ZM918.753 56.2266C919.076 56.2266 919.374 56.1606 919.647 56.0288C919.92 55.897 920.145 55.7163 920.321 55.4868C920.497 55.2524 920.597 54.9863 920.621 54.6885H921.91C921.886 55.1572 921.727 55.5942 921.434 55.9995C921.146 56.3999 920.768 56.7246 920.299 56.9736C919.83 57.2178 919.315 57.3398 918.753 57.3398C918.158 57.3398 917.638 57.2349 917.193 57.0249C916.754 56.8149 916.388 56.5269 916.095 56.1606C915.807 55.7944 915.589 55.3745 915.443 54.9009C915.301 54.4224 915.23 53.917 915.23 53.3848V53.0771C915.23 52.5449 915.301 52.042 915.443 51.5684C915.589 51.0898 915.807 50.6675 916.095 50.3013C916.388 49.9351 916.754 49.647 917.193 49.437C917.638 49.2271 918.158 49.1221 918.753 49.1221C919.374 49.1221 919.916 49.249 920.379 49.5029C920.843 49.752 921.207 50.0938 921.471 50.5283C921.739 50.958 921.886 51.4463 921.91 51.9932H920.621C920.597 51.666 920.504 51.3706 920.343 51.1069C920.187 50.8433 919.972 50.6333 919.698 50.4771C919.43 50.3159 919.115 50.2354 918.753 50.2354C918.338 50.2354 917.989 50.3184 917.706 50.4844C917.428 50.6455 917.206 50.8652 917.04 51.1436C916.878 51.417 916.761 51.7222 916.688 52.0591C916.62 52.3911 916.585 52.7305 916.585 53.0771V53.3848C916.585 53.7314 916.62 54.0732 916.688 54.4102C916.756 54.7471 916.871 55.0522 917.032 55.3257C917.198 55.5991 917.42 55.8188 917.699 55.9849C917.982 56.146 918.333 56.2266 918.753 56.2266ZM923.075 53.3188V53.1504C923.075 52.5791 923.158 52.0493 923.324 51.561C923.49 51.0679 923.729 50.6406 924.042 50.2793C924.354 49.9131 924.732 49.6299 925.177 49.4297C925.621 49.2246 926.119 49.1221 926.671 49.1221C927.228 49.1221 927.728 49.2246 928.172 49.4297C928.622 49.6299 929.002 49.9131 929.315 50.2793C929.632 50.6406 929.874 51.0679 930.04 51.561C930.206 52.0493 930.289 52.5791 930.289 53.1504V53.3188C930.289 53.8901 930.206 54.4199 930.04 54.9082C929.874 55.3965 929.632 55.8237 929.315 56.1899C929.002 56.5513 928.624 56.8345 928.18 57.0396C927.74 57.2397 927.242 57.3398 926.686 57.3398C926.129 57.3398 925.628 57.2397 925.184 57.0396C924.74 56.8345 924.359 56.5513 924.042 56.1899C923.729 55.8237 923.49 55.3965 923.324 54.9082C923.158 54.4199 923.075 53.8901 923.075 53.3188ZM924.43 53.1504V53.3188C924.43 53.7144 924.476 54.0879 924.569 54.4395C924.662 54.7861 924.801 55.0938 924.986 55.3623C925.177 55.6309 925.414 55.8433 925.697 55.9995C925.98 56.1509 926.31 56.2266 926.686 56.2266C927.057 56.2266 927.381 56.1509 927.66 55.9995C927.943 55.8433 928.177 55.6309 928.363 55.3623C928.548 55.0938 928.688 54.7861 928.78 54.4395C928.878 54.0879 928.927 53.7144 928.927 53.3188V53.1504C928.927 52.7598 928.878 52.3911 928.78 52.0444C928.688 51.6929 928.546 51.3828 928.355 51.1143C928.17 50.8408 927.936 50.626 927.652 50.4697C927.374 50.3135 927.047 50.2354 926.671 50.2354C926.3 50.2354 925.973 50.3135 925.689 50.4697C925.411 50.626 925.177 50.8408 924.986 51.1143C924.801 51.3828 924.662 51.6929 924.569 52.0444C924.476 52.3911 924.43 52.7598 924.43 53.1504ZM927.022 45.9434L928.839 47.9429V48.0161H927.711L926.612 46.7783L925.521 48.0161H924.408V47.9355L926.202 45.9434H927.022ZM933.343 50.9604V57.1934H931.988V49.2686H933.27L933.343 50.9604ZM933.021 52.9307L932.457 52.9087C932.462 52.3667 932.542 51.8662 932.699 51.4072C932.855 50.9434 933.075 50.5405 933.358 50.1987C933.641 49.8569 933.978 49.5933 934.369 49.4077C934.764 49.2173 935.201 49.1221 935.68 49.1221C936.07 49.1221 936.422 49.1758 936.734 49.2832C937.047 49.3857 937.313 49.5518 937.533 49.7812C937.757 50.0107 937.928 50.3086 938.045 50.6748C938.163 51.0361 938.221 51.478 938.221 52.0005V57.1934H936.859V51.9858C936.859 51.5708 936.798 51.2388 936.676 50.9897C936.554 50.7358 936.375 50.5527 936.141 50.4404C935.907 50.3232 935.619 50.2646 935.277 50.2646C934.94 50.2646 934.632 50.3354 934.354 50.4771C934.081 50.6187 933.844 50.814 933.644 51.063C933.448 51.312 933.294 51.5977 933.182 51.9199C933.075 52.2373 933.021 52.5742 933.021 52.9307ZM945.414 49.2686H946.644V57.0249C946.644 57.7231 946.502 58.3188 946.219 58.812C945.936 59.3052 945.541 59.6787 945.033 59.9326C944.53 60.1914 943.949 60.3208 943.29 60.3208C943.016 60.3208 942.694 60.2769 942.323 60.189C941.957 60.106 941.595 59.9619 941.239 59.7568C940.887 59.5566 940.592 59.2856 940.353 58.9438L941.063 58.1382C941.395 58.5386 941.742 58.8169 942.103 58.9731C942.469 59.1294 942.831 59.2075 943.187 59.2075C943.617 59.2075 943.988 59.127 944.3 58.9658C944.613 58.8047 944.854 58.5654 945.025 58.248C945.201 57.9355 945.289 57.5498 945.289 57.0908V51.0117L945.414 49.2686ZM939.957 53.3188V53.165C939.957 52.5596 940.028 52.0103 940.169 51.5171C940.316 51.019 940.523 50.5918 940.792 50.2354C941.065 49.8789 941.395 49.6055 941.781 49.415C942.167 49.2197 942.601 49.1221 943.084 49.1221C943.583 49.1221 944.017 49.21 944.388 49.3857C944.764 49.5566 945.082 49.8081 945.34 50.1401C945.604 50.4673 945.812 50.8628 945.963 51.3267C946.114 51.7905 946.219 52.3154 946.278 52.9014V53.5752C946.224 54.1562 946.119 54.6787 945.963 55.1426C945.812 55.6064 945.604 56.002 945.34 56.3291C945.082 56.6562 944.764 56.9077 944.388 57.0835C944.012 57.2544 943.573 57.3398 943.07 57.3398C942.596 57.3398 942.167 57.2397 941.781 57.0396C941.4 56.8394 941.073 56.5586 940.799 56.1973C940.526 55.8359 940.316 55.4111 940.169 54.9229C940.028 54.4297 939.957 53.895 939.957 53.3188ZM941.312 53.165V53.3188C941.312 53.7144 941.351 54.0854 941.429 54.4321C941.512 54.7788 941.637 55.084 941.803 55.3477C941.974 55.6113 942.191 55.8188 942.455 55.9702C942.718 56.1167 943.033 56.1899 943.399 56.1899C943.849 56.1899 944.22 56.0947 944.513 55.9043C944.806 55.7139 945.038 55.4624 945.208 55.1499C945.384 54.8374 945.521 54.498 945.619 54.1318V52.3667C945.565 52.0981 945.482 51.8394 945.37 51.5903C945.262 51.3364 945.121 51.1118 944.945 50.9165C944.774 50.7163 944.562 50.5576 944.308 50.4404C944.054 50.3232 943.756 50.2646 943.414 50.2646C943.043 50.2646 942.723 50.3428 942.455 50.499C942.191 50.6504 941.974 50.8604 941.803 51.1289C941.637 51.3926 941.512 51.7002 941.429 52.0518C941.351 52.3984 941.312 52.7695 941.312 53.165Z" fill="#718EBF"/>
</svg>
